solid Modified_Thing_63165
facet normal 0.0 1.6653345369377348e-15 -1.0
  outer loop
    vertex -244.0857356890069 214.78515271195502 -2.9999999999999103
    vertex -162.00563568900688 254.78515271195505 -2.9999999999998437
    vertex -244.0857356890069 204.78515271195505 -2.9999999999999267
  endloop
endfacet
facet normal 0.0 1.6653345369377348e-15 -1.0
  outer loop
    vertex -162.00563568900688 254.78515271195505 -2.9999999999998437
    vertex -244.0857356890069 214.78515271195502 -2.9999999999999103
    vertex -172.00563568900685 254.78515271195505 -2.9999999999998437
  endloop
endfacet
facet normal 0.5202369264123389 -0.8540219788723489 -1.422232296720031e-15
  outer loop
    vertex -162.00563568900688 254.78515271195505 -2.9999999999998437
    vertex -244.0857356890069 204.78515271195505 7.331912854624534e-14
    vertex -244.0857356890069 204.78515271195505 -2.9999999999999267
  endloop
endfacet
facet normal 0.5202369264123389 -0.8540219788723489 -1.422232296720031e-15
  outer loop
    vertex -244.0857356890069 204.78515271195505 7.331912854624534e-14
    vertex -162.00563568900688 254.78515271195505 -2.9999999999998437
    vertex -162.00563568900688 254.78515271195505 1.5658585539313206e-13
  endloop
endfacet
facet normal 0.0 -1.6653345369377348e-15 1.0
  outer loop
    vertex -162.00563568900688 254.78515271195505 1.5658585539313206e-13
    vertex -244.0857356890069 214.78515271195502 8.997247391562268e-14
    vertex -244.0857356890069 204.78515271195505 7.331912854624534e-14
  endloop
endfacet
facet normal 0.0 -1.6653345369377348e-15 1.0
  outer loop
    vertex -244.0857356890069 214.78515271195502 8.997247391562268e-14
    vertex -162.00563568900688 254.78515271195505 1.5658585539313206e-13
    vertex -172.00563568900685 254.78515271195505 1.5658585539313206e-13
  endloop
endfacet
facet normal 0.0 1.0 1.6653345369377348e-15
  outer loop
    vertex -162.00563568900688 254.78515271195505 1.5658585539313206e-13
    vertex -172.00563568900685 254.78515271195505 -2.9999999999998437
    vertex -172.00563568900685 254.78515271195505 1.5658585539313206e-13
  endloop
endfacet
facet normal 0.0 1.0 1.6653345369377348e-15
  outer loop
    vertex -172.00563568900685 254.78515271195505 -2.9999999999998437
    vertex -162.00563568900688 254.78515271195505 1.5658585539313206e-13
    vertex -162.00563568900688 254.78515271195505 -2.9999999999998437
  endloop
endfacet
facet normal -0.4852303740693777 0.8743863471489545 1.4561457825339815e-15
  outer loop
    vertex -172.00563568900685 254.78515271195505 1.5658585539313206e-13
    vertex -244.0857356890069 214.78515271195502 -2.9999999999999103
    vertex -244.0857356890069 214.78515271195502 8.997247391562268e-14
  endloop
endfacet
facet normal -0.4852303740693777 0.8743863471489545 1.4561457825339815e-15
  outer loop
    vertex -244.0857356890069 214.78515271195502 -2.9999999999999103
    vertex -172.00563568900685 254.78515271195505 1.5658585539313206e-13
    vertex -172.00563568900685 254.78515271195505 -2.9999999999998437
  endloop
endfacet
facet normal -1.0 -0.0 0.0
  outer loop
    vertex -244.0857356890069 214.78515271195502 -2.9999999999999103
    vertex -244.0857356890069 204.78515271195505 7.331912854624534e-14
    vertex -244.0857356890069 214.78515271195502 8.997247391562268e-14
  endloop
endfacet
facet normal -1.0 -0.0 0.0
  outer loop
    vertex -244.0857356890069 204.78515271195505 7.331912854624534e-14
    vertex -244.0857356890069 214.78515271195502 -2.9999999999999103
    vertex -244.0857356890069 204.78515271195505 -2.9999999999999267
  endloop
endfacet
facet normal -0.4852303740693785 0.8743863471489541 1.456145782533981e-15
  outer loop
    vertex -241.52366975238985 216.20694093734156 10.000000000000096
    vertex -244.0857356890069 214.78515271195508 9.587886040662851e-14
    vertex -244.0857356890069 214.78515271195502 10.000000000000094
  endloop
endfacet
facet normal -0.4852303740693785 0.8743863471489541 1.456145782533981e-15
  outer loop
    vertex -244.0857356890069 214.78515271195508 9.587886040662851e-14
    vertex -241.52366975238985 216.20694093734156 10.000000000000096
    vertex -241.52366975238985 216.20694093734156 9.728884364790246e-14
  endloop
endfacet
facet normal 1.0 0.0 0.0
  outer loop
    vertex -241.52366975238985 206.3458634911921 10.00000000000008
    vertex -241.52366975238985 210.41612533913855 6.466261810905482
    vertex -241.52366975238985 216.20694093734156 10.000000000000096
  endloop
endfacet
facet normal 1.0 0.0 0.0
  outer loop
    vertex -241.52366975238985 210.41612533913855 6.466261810905482
    vertex -241.52366975238985 206.3458634911921 10.00000000000008
    vertex -241.52366975238985 210.06594208105236 6.193644111910509
  endloop
endfacet
facet normal 1.0 0.0 0.0
  outer loop
    vertex -241.52366975238985 210.06594208105236 6.193644111910509
    vertex -241.52366975238985 206.3458634911921 10.00000000000008
    vertex -241.52366975238985 209.79824968066475 5.8396815392790025
  endloop
endfacet
facet normal 1.0 0.0 0.0
  outer loop
    vertex -241.52366975238985 209.79824968066475 5.8396815392790025
    vertex -241.52366975238985 206.3458634911921 10.00000000000008
    vertex -241.52366975238985 206.3458634911921 8.177902799388902e-14
  endloop
endfacet
facet normal 1.0 0.0 0.0
  outer loop
    vertex -241.52366975238985 216.20694093734156 10.000000000000096
    vertex -241.52366975238985 210.41612533913855 6.466261810905482
    vertex -241.52366975238985 210.82493504459003 6.638956190599459
  endloop
endfacet
facet normal 1.0 0.0 0.0
  outer loop
    vertex -241.52366975238985 216.20694093734156 10.000000000000096
    vertex -241.52366975238985 210.82493504459003 6.638956190599459
    vertex -241.52366975238985 211.26451149157018 6.699958414407264
  endloop
endfacet
facet normal 1.0 0.0 0.0
  outer loop
    vertex -241.52366975238985 209.79824968066475 5.8396815392790025
    vertex -241.52366975238985 206.3458634911921 8.177902799388902e-14
    vertex -241.52366975238985 209.63129093267958 5.4284960573849945
  endloop
endfacet
facet normal 1.0 0.0 0.0
  outer loop
    vertex -241.52366975238985 209.63129093267958 5.4284960573849945
    vertex -241.52366975238985 206.3458634911921 8.177902799388902e-14
    vertex -241.52366975238985 209.57644379985965 4.988109277303421
  endloop
endfacet
facet normal 1.0 0.0 0.0
  outer loop
    vertex -241.52366975238985 209.57644379985965 4.988109277303421
    vertex -241.52366975238985 206.3458634911921 8.177902799388902e-14
    vertex -241.52366975238985 209.63744602366745 4.548532830323273
  endloop
endfacet
facet normal 1.0 0.0 0.0
  outer loop
    vertex -241.52366975238985 209.63744602366745 4.548532830323273
    vertex -241.52366975238985 206.3458634911921 8.177902799388902e-14
    vertex -241.52366975238985 209.8101404033614 4.139723124871831
  endloop
endfacet
facet normal 1.0 0.0 0.0
  outer loop
    vertex -241.52366975238985 209.8101404033614 4.139723124871831
    vertex -241.52366975238985 206.3458634911921 8.177902799388902e-14
    vertex -241.52366975238985 210.08275810235637 3.789539866785622
  endloop
endfacet
facet normal 1.0 0.0 0.0
  outer loop
    vertex -241.52366975238985 210.08275810235637 3.789539866785622
    vertex -241.52366975238985 206.3458634911921 8.177902799388902e-14
    vertex -241.52366975238985 210.4367206749879 3.521847466398025
  endloop
endfacet
facet normal 1.0 0.0 0.0
  outer loop
    vertex -241.52366975238985 210.4367206749879 3.521847466398025
    vertex -241.52366975238985 206.3458634911921 8.177902799388902e-14
    vertex -241.52366975238985 210.84790615688192 3.3548887184128495
  endloop
endfacet
facet normal 1.0 0.0 0.0
  outer loop
    vertex -241.52366975238985 210.84790615688192 3.3548887184128495
    vertex -241.52366975238985 206.3458634911921 8.177902799388902e-14
    vertex -241.52366975238985 211.2882929369635 3.30004158559291
  endloop
endfacet
facet normal 1.0 0.0 0.0
  outer loop
    vertex -241.52366975238985 216.20694093734156 10.000000000000096
    vertex -241.52366975238985 212.74266402517225 5.860276875128341
    vertex -241.52366975238985 216.20694093734156 9.728884364790246e-14
  endloop
endfacet
facet normal 1.0 0.0 0.0
  outer loop
    vertex -241.52366975238985 212.74266402517225 5.860276875128341
    vertex -241.52366975238985 216.20694093734156 10.000000000000096
    vertex -241.52366975238985 212.47004632617723 6.210460133214551
  endloop
endfacet
facet normal 1.0 0.0 0.0
  outer loop
    vertex -241.52366975238985 212.47004632617723 6.210460133214551
    vertex -241.52366975238985 216.20694093734156 10.000000000000096
    vertex -241.52366975238985 212.11608375354575 6.478152533602147
  endloop
endfacet
facet normal 1.0 0.0 0.0
  outer loop
    vertex -241.52366975238985 212.11608375354575 6.478152533602147
    vertex -241.52366975238985 216.20694093734156 10.000000000000096
    vertex -241.52366975238985 211.70489827165173 6.645111281587322
  endloop
endfacet
facet normal 1.0 0.0 0.0
  outer loop
    vertex -241.52366975238985 211.70489827165173 6.645111281587322
    vertex -241.52366975238985 216.20694093734156 10.000000000000096
    vertex -241.52366975238985 211.26451149157018 6.699958414407264
  endloop
endfacet
facet normal 1.0 0.0 0.0
  outer loop
    vertex -241.52366975238985 216.20694093734156 9.728884364790246e-14
    vertex -241.52366975238985 212.74266402517225 5.860276875128341
    vertex -241.52366975238985 212.9153584048662 5.451467169676899
  endloop
endfacet
facet normal 1.0 0.0 0.0
  outer loop
    vertex -241.52366975238985 216.20694093734156 9.728884364790246e-14
    vertex -241.52366975238985 212.9153584048662 5.451467169676899
    vertex -241.52366975238985 212.976360628674 5.0118907226967515
  endloop
endfacet
facet normal 1.0 0.0 0.0
  outer loop
    vertex -241.52366975238985 216.20694093734156 9.728884364790246e-14
    vertex -241.52366975238985 212.976360628674 5.0118907226967515
    vertex -241.52366975238985 212.92151349585407 4.571503942615178
  endloop
endfacet
facet normal 1.0 0.0 0.0
  outer loop
    vertex -241.52366975238985 216.20694093734156 9.728884364790246e-14
    vertex -241.52366975238985 212.92151349585407 4.571503942615178
    vertex -241.52366975238985 212.7545547478689 4.1603184607211645
  endloop
endfacet
facet normal 1.0 0.0 0.0
  outer loop
    vertex -241.52366975238985 216.20694093734156 9.728884364790246e-14
    vertex -241.52366975238985 212.7545547478689 4.1603184607211645
    vertex -241.52366975238985 212.4868623474813 3.8063558880896626
  endloop
endfacet
facet normal 1.0 0.0 0.0
  outer loop
    vertex -241.52366975238985 216.20694093734156 9.728884364790246e-14
    vertex -241.52366975238985 212.4868623474813 3.8063558880896626
    vertex -241.52366975238985 212.13667908939505 3.5337381890946906
  endloop
endfacet
facet normal 1.0 0.0 0.0
  outer loop
    vertex -241.52366975238985 216.20694093734156 9.728884364790246e-14
    vertex -241.52366975238985 212.13667908939505 3.5337381890946906
    vertex -241.52366975238985 211.7278693839436 3.3610438094007127
  endloop
endfacet
facet normal 1.0 0.0 0.0
  outer loop
    vertex -241.52366975238985 216.20694093734156 9.728884364790246e-14
    vertex -241.52366975238985 211.7278693839436 3.3610438094007127
    vertex -241.52366975238985 211.2882929369635 3.30004158559291
  endloop
endfacet
facet normal 1.0 0.0 0.0
  outer loop
    vertex -241.52366975238985 216.20694093734156 9.728884364790246e-14
    vertex -241.52366975238985 211.2882929369635 3.30004158559291
    vertex -241.52366975238985 206.3458634911921 8.177902799388902e-14
  endloop
endfacet
facet normal 0.0 -1.6653345369377348e-15 1.0
  outer loop
    vertex -241.52366975238985 206.3458634911921 10.00000000000008
    vertex -244.0857356890069 214.78515271195502 10.000000000000094
    vertex -244.0857356890069 204.78515271195505 10.000000000000078
  endloop
endfacet
facet normal 0.0 -1.6653345369377348e-15 1.0
  outer loop
    vertex -244.0857356890069 214.78515271195502 10.000000000000094
    vertex -241.52366975238985 206.3458634911921 10.00000000000008
    vertex -241.52366975238985 216.20694093734156 10.000000000000096
  endloop
endfacet
facet normal 0.5202369264123388 -0.854021978872349 -1.4222322967200312e-15
  outer loop
    vertex -241.52366975238985 206.3458634911921 8.177902799388902e-14
    vertex -244.0857356890069 204.78515271195505 10.000000000000078
    vertex -244.0857356890069 204.78515271195505 7.895906151134113e-14
  endloop
endfacet
facet normal 0.5202369264123388 -0.854021978872349 -1.4222322967200312e-15
  outer loop
    vertex -244.0857356890069 204.78515271195505 10.000000000000078
    vertex -241.52366975238985 206.3458634911921 8.177902799388902e-14
    vertex -241.52366975238985 206.3458634911921 10.00000000000008
  endloop
endfacet
facet normal -1.0 -0.0 0.0
  outer loop
    vertex -244.0857356890069 214.78515271195502 10.000000000000094
    vertex -244.0857356890069 212.11608375354575 6.478152533602147
    vertex -244.0857356890069 204.78515271195505 10.000000000000078
  endloop
endfacet
facet normal -1.0 -0.0 0.0
  outer loop
    vertex -244.0857356890069 212.11608375354575 6.478152533602147
    vertex -244.0857356890069 214.78515271195502 10.000000000000094
    vertex -244.0857356890069 212.47004632617723 6.210460133214551
  endloop
endfacet
facet normal -1.0 -0.0 0.0
  outer loop
    vertex -244.0857356890069 212.47004632617723 6.210460133214551
    vertex -244.0857356890069 214.78515271195502 10.000000000000094
    vertex -244.0857356890069 212.74266402517225 5.860276875128341
  endloop
endfacet
facet normal -1.0 -0.0 0.0
  outer loop
    vertex -244.0857356890069 212.74266402517225 5.860276875128341
    vertex -244.0857356890069 214.78515271195502 10.000000000000094
    vertex -244.0857356890069 212.9153584048662 5.451467169676899
  endloop
endfacet
facet normal -1.0 -0.0 0.0
  outer loop
    vertex -244.0857356890069 212.9153584048662 5.451467169676899
    vertex -244.0857356890069 214.78515271195502 10.000000000000094
    vertex -244.0857356890069 214.78515271195508 9.587886040662851e-14
  endloop
endfacet
facet normal -1.0 -0.0 0.0
  outer loop
    vertex -244.0857356890069 204.78515271195505 10.000000000000078
    vertex -244.0857356890069 212.11608375354575 6.478152533602147
    vertex -244.0857356890069 211.70489827165173 6.645111281587322
  endloop
endfacet
facet normal -1.0 -0.0 0.0
  outer loop
    vertex -244.0857356890069 204.78515271195505 10.000000000000078
    vertex -244.0857356890069 211.70489827165173 6.645111281587322
    vertex -244.0857356890069 211.26451149157018 6.699958414407264
  endloop
endfacet
facet normal -1.0 -0.0 0.0
  outer loop
    vertex -244.0857356890069 212.9153584048662 5.451467169676899
    vertex -244.0857356890069 214.78515271195508 9.587886040662851e-14
    vertex -244.0857356890069 212.976360628674 5.0118907226967515
  endloop
endfacet
facet normal -1.0 -0.0 0.0
  outer loop
    vertex -244.0857356890069 212.976360628674 5.0118907226967515
    vertex -244.0857356890069 214.78515271195508 9.587886040662851e-14
    vertex -244.0857356890069 212.92151349585407 4.571503942615178
  endloop
endfacet
facet normal -1.0 -0.0 0.0
  outer loop
    vertex -244.0857356890069 212.92151349585407 4.571503942615178
    vertex -244.0857356890069 214.78515271195508 9.587886040662851e-14
    vertex -244.0857356890069 212.7545547478689 4.1603184607211645
  endloop
endfacet
facet normal -1.0 -0.0 0.0
  outer loop
    vertex -244.0857356890069 212.7545547478689 4.1603184607211645
    vertex -244.0857356890069 214.78515271195508 9.587886040662851e-14
    vertex -244.0857356890069 212.4868623474813 3.8063558880896626
  endloop
endfacet
facet normal -1.0 -0.0 0.0
  outer loop
    vertex -244.0857356890069 212.4868623474813 3.8063558880896626
    vertex -244.0857356890069 214.78515271195508 9.587886040662851e-14
    vertex -244.0857356890069 212.13667908939505 3.5337381890946906
  endloop
endfacet
facet normal -1.0 -0.0 0.0
  outer loop
    vertex -244.0857356890069 212.13667908939505 3.5337381890946906
    vertex -244.0857356890069 214.78515271195508 9.587886040662851e-14
    vertex -244.0857356890069 211.7278693839436 3.3610438094007127
  endloop
endfacet
facet normal -1.0 -0.0 0.0
  outer loop
    vertex -244.0857356890069 211.7278693839436 3.3610438094007127
    vertex -244.0857356890069 214.78515271195508 9.587886040662851e-14
    vertex -244.0857356890069 211.2882929369635 3.30004158559291
  endloop
endfacet
facet normal -1.0 -0.0 0.0
  outer loop
    vertex -244.0857356890069 204.78515271195505 10.000000000000078
    vertex -244.0857356890069 210.06594208105236 6.193644111910509
    vertex -244.0857356890069 204.78515271195505 7.895906151134113e-14
  endloop
endfacet
facet normal -1.0 -0.0 0.0
  outer loop
    vertex -244.0857356890069 210.06594208105236 6.193644111910509
    vertex -244.0857356890069 204.78515271195505 10.000000000000078
    vertex -244.0857356890069 210.41612533913855 6.466261810905482
  endloop
endfacet
facet normal -1.0 -0.0 0.0
  outer loop
    vertex -244.0857356890069 210.41612533913855 6.466261810905482
    vertex -244.0857356890069 204.78515271195505 10.000000000000078
    vertex -244.0857356890069 210.82493504459003 6.638956190599459
  endloop
endfacet
facet normal -1.0 -0.0 0.0
  outer loop
    vertex -244.0857356890069 210.82493504459003 6.638956190599459
    vertex -244.0857356890069 204.78515271195505 10.000000000000078
    vertex -244.0857356890069 211.26451149157018 6.699958414407264
  endloop
endfacet
facet normal -1.0 -0.0 0.0
  outer loop
    vertex -244.0857356890069 204.78515271195505 7.895906151134113e-14
    vertex -244.0857356890069 210.06594208105236 6.193644111910509
    vertex -244.0857356890069 209.79824968066475 5.8396815392790025
  endloop
endfacet
facet normal -1.0 -0.0 0.0
  outer loop
    vertex -244.0857356890069 204.78515271195505 7.895906151134113e-14
    vertex -244.0857356890069 209.79824968066475 5.8396815392790025
    vertex -244.0857356890069 209.63129093267958 5.4284960573849945
  endloop
endfacet
facet normal -1.0 -0.0 0.0
  outer loop
    vertex -244.0857356890069 204.78515271195505 7.895906151134113e-14
    vertex -244.0857356890069 209.63129093267958 5.4284960573849945
    vertex -244.0857356890069 209.57644379985965 4.988109277303421
  endloop
endfacet
facet normal -1.0 -0.0 0.0
  outer loop
    vertex -244.0857356890069 204.78515271195505 7.895906151134113e-14
    vertex -244.0857356890069 209.57644379985965 4.988109277303421
    vertex -244.0857356890069 209.63744602366745 4.548532830323273
  endloop
endfacet
facet normal -1.0 -0.0 0.0
  outer loop
    vertex -244.0857356890069 204.78515271195505 7.895906151134113e-14
    vertex -244.0857356890069 209.63744602366745 4.548532830323273
    vertex -244.0857356890069 209.8101404033614 4.139723124871831
  endloop
endfacet
facet normal -1.0 -0.0 0.0
  outer loop
    vertex -244.0857356890069 204.78515271195505 7.895906151134113e-14
    vertex -244.0857356890069 209.8101404033614 4.139723124871831
    vertex -244.0857356890069 210.08275810235637 3.789539866785622
  endloop
endfacet
facet normal -1.0 -0.0 0.0
  outer loop
    vertex -244.0857356890069 204.78515271195505 7.895906151134113e-14
    vertex -244.0857356890069 210.08275810235637 3.789539866785622
    vertex -244.0857356890069 210.4367206749879 3.521847466398025
  endloop
endfacet
facet normal -1.0 -0.0 0.0
  outer loop
    vertex -244.0857356890069 204.78515271195505 7.895906151134113e-14
    vertex -244.0857356890069 210.4367206749879 3.521847466398025
    vertex -244.0857356890069 210.84790615688192 3.3548887184128495
  endloop
endfacet
facet normal -1.0 -0.0 0.0
  outer loop
    vertex -244.0857356890069 204.78515271195505 7.895906151134113e-14
    vertex -244.0857356890069 210.84790615688192 3.3548887184128495
    vertex -244.0857356890069 211.2882929369635 3.30004158559291
  endloop
endfacet
facet normal -1.0 -0.0 0.0
  outer loop
    vertex -244.0857356890069 204.78515271195505 7.895906151134113e-14
    vertex -244.0857356890069 211.2882929369635 3.30004158559291
    vertex -244.0857356890069 214.78515271195508 9.587886040662851e-14
  endloop
endfacet
facet normal 0.0 1.6653345369377348e-15 -1.0
  outer loop
    vertex -244.0857356890069 214.78515271195508 9.587886040662851e-14
    vertex -241.52366975238985 206.3458634911921 8.177902799388902e-14
    vertex -244.0857356890069 204.78515271195505 7.895906151134113e-14
  endloop
endfacet
facet normal 0.0 1.6653345369377348e-15 -1.0
  outer loop
    vertex -241.52366975238985 206.3458634911921 8.177902799388902e-14
    vertex -244.0857356890069 214.78515271195508 9.587886040662851e-14
    vertex -241.52366975238985 216.20694093734156 9.728884364790246e-14
  endloop
endfacet
facet normal -6.935662619595487e-31 0.2520565043440645 0.9677125185807255
  outer loop
    vertex -241.52366975238985 210.84790615688192 3.3548887184128495
    vertex -244.0857356890069 210.4367206749879 3.521847466398025
    vertex -241.52366975238985 210.4367206749879 3.521847466398025
  endloop
endfacet
facet normal -1.3591135236770312e-30 0.49393031722289515 0.8695014903541514
  outer loop
    vertex -244.0857356890069 210.4367206749879 3.521847466398025
    vertex -241.52366975238985 210.84790615688192 3.3548887184128495
    vertex -244.0857356890069 210.84790615688192 3.3548887184128495
  endloop
endfacet
facet normal 1.9246394338044213e-32 -0.006994542762748705 0.9999755378865727
  outer loop
    vertex -241.52366975238985 211.2882929369635 3.30004158559291
    vertex -244.0857356890069 210.84790615688192 3.3548887184128495
    vertex -241.52366975238985 210.84790615688192 3.3548887184128495
  endloop
endfacet
facet normal -6.935662619595487e-31 0.2520565043440645 0.9677125185807255
  outer loop
    vertex -244.0857356890069 210.84790615688192 3.3548887184128495
    vertex -241.52366975238985 211.2882929369635 3.30004158559291
    vertex -244.0857356890069 211.2882929369635 3.30004158559291
  endloop
endfacet
facet normal 7.307474406676485e-31 -0.26556892333930127 0.9640918768231608
  outer loop
    vertex -241.52366975238985 211.7278693839436 3.3610438094007127
    vertex -244.0857356890069 211.2882929369635 3.30004158559291
    vertex -241.52366975238985 211.2882929369635 3.30004158559291
  endloop
endfacet
facet normal 1.9246394338044213e-32 -0.006994542762748705 0.9999755378865727
  outer loop
    vertex -244.0857356890069 211.2882929369635 3.30004158559291
    vertex -241.52366975238985 211.7278693839436 3.3610438094007127
    vertex -244.0857356890069 211.7278693839436 3.3610438094007127
  endloop
endfacet
facet normal 1.3924492565329991e-30 -0.5060452206636779 0.8625069475914092
  outer loop
    vertex -241.52366975238985 212.13667908939505 3.5337381890946906
    vertex -244.0857356890069 211.7278693839436 3.3610438094007127
    vertex -241.52366975238985 211.7278693839436 3.3610438094007127
  endloop
endfacet
facet normal 7.307474406676485e-31 -0.26556892333930127 0.9640918768231608
  outer loop
    vertex -244.0857356890069 211.7278693839436 3.3610438094007127
    vertex -241.52366975238985 212.13667908939505 3.5337381890946906
    vertex -244.0857356890069 212.13667908939505 3.5337381890946906
  endloop
endfacet
facet normal 1.9592579566968338e-30 -0.7120353724790967 0.702143595241425
  outer loop
    vertex -241.52366975238985 212.4868623474813 3.8063558880896626
    vertex -244.0857356890069 212.13667908939505 3.5337381890946906
    vertex -241.52366975238985 212.13667908939505 3.5337381890946906
  endloop
endfacet
facet normal 1.3924492565329991e-30 -0.5060452206636779 0.8625069475914092
  outer loop
    vertex -244.0857356890069 212.13667908939505 3.5337381890946906
    vertex -241.52366975238985 212.4868623474813 3.8063558880896626
    vertex -244.0857356890069 212.4868623474813 3.8063558880896626
  endloop
endfacet
facet normal 1.9592579566968338e-30 -0.7120353724790967 0.702143595241425
  outer loop
    vertex -241.52366975238985 212.4868623474813 3.8063558880896626
    vertex -244.0857356890069 212.7545547478689 4.1603184607211645
    vertex -244.0857356890069 212.4868623474813 3.8063558880896626
  endloop
endfacet
facet normal 2.392546464938639e-30 -0.8695014903541524 0.49393031722289354
  outer loop
    vertex -244.0857356890069 212.7545547478689 4.1603184607211645
    vertex -241.52366975238985 212.4868623474813 3.8063558880896626
    vertex -241.52366975238985 212.7545547478689 4.1603184607211645
  endloop
endfacet
facet normal 2.392546464938639e-30 -0.8695014903541524 0.49393031722289354
  outer loop
    vertex -241.52366975238985 212.7545547478689 4.1603184607211645
    vertex -244.0857356890069 212.92151349585407 4.571503942615178
    vertex -244.0857356890069 212.7545547478689 4.1603184607211645
  endloop
endfacet
facet normal 2.6627868854648558e-30 -0.9677125185807256 0.2520565043440633
  outer loop
    vertex -244.0857356890069 212.92151349585407 4.571503942615178
    vertex -241.52366975238985 212.7545547478689 4.1603184607211645
    vertex -241.52366975238985 212.92151349585407 4.571503942615178
  endloop
endfacet
facet normal 2.6627868854648558e-30 -0.9677125185807256 0.2520565043440633
  outer loop
    vertex -241.52366975238985 212.92151349585407 4.571503942615178
    vertex -244.0857356890069 212.976360628674 5.0118907226967515
    vertex -244.0857356890069 212.92151349585407 4.571503942615178
  endloop
endfacet
facet normal 2.7515627802100296e-30 -0.9999755378865726 -0.006994542762745136
  outer loop
    vertex -244.0857356890069 212.976360628674 5.0118907226967515
    vertex -241.52366975238985 212.92151349585407 4.571503942615178
    vertex -241.52366975238985 212.976360628674 5.0118907226967515
  endloop
endfacet
facet normal 2.7515627802100296e-30 -0.9999755378865726 -0.006994542762745136
  outer loop
    vertex -241.52366975238985 212.976360628674 5.0118907226967515
    vertex -244.0857356890069 212.9153584048662 5.451467169676899
    vertex -244.0857356890069 212.976360628674 5.0118907226967515
  endloop
endfacet
facet normal 2.6528242186563837e-30 -0.9640918768231613 -0.265568923339299
  outer loop
    vertex -244.0857356890069 212.9153584048662 5.451467169676899
    vertex -241.52366975238985 212.976360628674 5.0118907226967515
    vertex -241.52366975238985 212.9153584048662 5.451467169676899
  endloop
endfacet
facet normal 2.6528242186563837e-30 -0.9640918768231613 -0.265568923339299
  outer loop
    vertex -241.52366975238985 212.9153584048662 5.451467169676899
    vertex -244.0857356890069 212.74266402517225 5.860276875128341
    vertex -244.0857356890069 212.9153584048662 5.451467169676899
  endloop
endfacet
facet normal 2.373300070600608e-30 -0.8625069475914086 -0.5060452206636789
  outer loop
    vertex -244.0857356890069 212.74266402517225 5.860276875128341
    vertex -241.52366975238985 212.9153584048662 5.451467169676899
    vertex -241.52366975238985 212.74266402517225 5.860276875128341
  endloop
endfacet
facet normal 2.373300070600608e-30 -0.8625069475914086 -0.5060452206636789
  outer loop
    vertex -241.52366975238985 212.74266402517225 5.860276875128341
    vertex -244.0857356890069 212.47004632617723 6.210460133214551
    vertex -244.0857356890069 212.74266402517225 5.860276875128341
  endloop
endfacet
facet normal 1.93203944479721e-30 -0.7021435952414256 -0.7120353724790963
  outer loop
    vertex -244.0857356890069 212.47004632617723 6.210460133214551
    vertex -241.52366975238985 212.74266402517225 5.860276875128341
    vertex -241.52366975238985 212.47004632617723 6.210460133214551
  endloop
endfacet
facet normal 1.93203944479721e-30 -0.7021435952414256 -0.7120353724790963
  outer loop
    vertex -244.0857356890069 212.47004632617723 6.210460133214551
    vertex -241.52366975238985 212.11608375354575 6.478152533602147
    vertex -244.0857356890069 212.11608375354575 6.478152533602147
  endloop
endfacet
facet normal 1.3591135236770312e-30 -0.49393031722289515 -0.8695014903541514
  outer loop
    vertex -241.52366975238985 212.11608375354575 6.478152533602147
    vertex -244.0857356890069 212.47004632617723 6.210460133214551
    vertex -241.52366975238985 212.47004632617723 6.210460133214551
  endloop
endfacet
facet normal 1.3591135236770312e-30 -0.49393031722289515 -0.8695014903541514
  outer loop
    vertex -244.0857356890069 212.11608375354575 6.478152533602147
    vertex -241.52366975238985 211.70489827165173 6.645111281587322
    vertex -244.0857356890069 211.70489827165173 6.645111281587322
  endloop
endfacet
facet normal 6.935662619595487e-31 -0.2520565043440645 -0.9677125185807255
  outer loop
    vertex -241.52366975238985 211.70489827165173 6.645111281587322
    vertex -244.0857356890069 212.11608375354575 6.478152533602147
    vertex -241.52366975238985 212.11608375354575 6.478152533602147
  endloop
endfacet
facet normal 6.935662619595487e-31 -0.2520565043440645 -0.9677125185807255
  outer loop
    vertex -244.0857356890069 211.70489827165173 6.645111281587322
    vertex -241.52366975238985 211.26451149157018 6.699958414407264
    vertex -244.0857356890069 211.26451149157018 6.699958414407264
  endloop
endfacet
facet normal -1.9246394338043033e-32 0.006994542762748286 -0.9999755378865727
  outer loop
    vertex -241.52366975238985 211.26451149157018 6.699958414407264
    vertex -244.0857356890069 211.70489827165173 6.645111281587322
    vertex -241.52366975238985 211.70489827165173 6.645111281587322
  endloop
endfacet
facet normal -1.9246394338043033e-32 0.006994542762748286 -0.9999755378865727
  outer loop
    vertex -244.0857356890069 211.26451149157018 6.699958414407264
    vertex -241.52366975238985 210.82493504459003 6.638956190599459
    vertex -244.0857356890069 210.82493504459003 6.638956190599459
  endloop
endfacet
facet normal -7.307474406676508e-31 0.26556892333930204 -0.9640918768231606
  outer loop
    vertex -241.52366975238985 210.82493504459003 6.638956190599459
    vertex -244.0857356890069 211.26451149157018 6.699958414407264
    vertex -241.52366975238985 211.26451149157018 6.699958414407264
  endloop
endfacet
facet normal -7.307474406676508e-31 0.26556892333930204 -0.9640918768231606
  outer loop
    vertex -244.0857356890069 210.82493504459003 6.638956190599459
    vertex -241.52366975238985 210.41612533913855 6.466261810905482
    vertex -244.0857356890069 210.41612533913855 6.466261810905482
  endloop
endfacet
facet normal -1.3924492565330018e-30 0.5060452206636789 -0.8625069475914086
  outer loop
    vertex -241.52366975238985 210.41612533913855 6.466261810905482
    vertex -244.0857356890069 210.82493504459003 6.638956190599459
    vertex -241.52366975238985 210.82493504459003 6.638956190599459
  endloop
endfacet
facet normal -1.3924492565330018e-30 0.5060452206636789 -0.8625069475914086
  outer loop
    vertex -244.0857356890069 210.41612533913855 6.466261810905482
    vertex -241.52366975238985 210.06594208105236 6.193644111910509
    vertex -244.0857356890069 210.06594208105236 6.193644111910509
  endloop
endfacet
facet normal -1.9592579566968373e-30 0.7120353724790975 -0.7021435952414241
  outer loop
    vertex -241.52366975238985 210.06594208105236 6.193644111910509
    vertex -244.0857356890069 210.41612533913855 6.466261810905482
    vertex -241.52366975238985 210.41612533913855 6.466261810905482
  endloop
endfacet
facet normal -1.9592579566968373e-30 0.7120353724790975 -0.7021435952414241
  outer loop
    vertex -241.52366975238985 210.06594208105236 6.193644111910509
    vertex -244.0857356890069 209.79824968066475 5.8396815392790025
    vertex -244.0857356890069 210.06594208105236 6.193644111910509
  endloop
endfacet
facet normal -2.392546464938642e-30 0.8695014903541533 -0.493930317222892
  outer loop
    vertex -244.0857356890069 209.79824968066475 5.8396815392790025
    vertex -241.52366975238985 210.06594208105236 6.193644111910509
    vertex -241.52366975238985 209.79824968066475 5.8396815392790025
  endloop
endfacet
facet normal -2.392546464938642e-30 0.8695014903541533 -0.493930317222892
  outer loop
    vertex -241.52366975238985 209.79824968066475 5.8396815392790025
    vertex -244.0857356890069 209.63129093267958 5.4284960573849945
    vertex -244.0857356890069 209.79824968066475 5.8396815392790025
  endloop
endfacet
facet normal -2.6627868854648565e-30 0.9677125185807258 -0.25205650434406285
  outer loop
    vertex -244.0857356890069 209.63129093267958 5.4284960573849945
    vertex -241.52366975238985 209.79824968066475 5.8396815392790025
    vertex -241.52366975238985 209.63129093267958 5.4284960573849945
  endloop
endfacet
facet normal -2.6627868854648565e-30 0.9677125185807258 -0.25205650434406285
  outer loop
    vertex -241.52366975238985 209.63129093267958 5.4284960573849945
    vertex -244.0857356890069 209.57644379985965 4.988109277303421
    vertex -244.0857356890069 209.63129093267958 5.4284960573849945
  endloop
endfacet
facet normal -2.7515627802100296e-30 0.9999755378865726 0.006994542762745136
  outer loop
    vertex -244.0857356890069 209.57644379985965 4.988109277303421
    vertex -241.52366975238985 209.63129093267958 5.4284960573849945
    vertex -241.52366975238985 209.57644379985965 4.988109277303421
  endloop
endfacet
facet normal -2.7515627802100296e-30 0.9999755378865726 0.006994542762745136
  outer loop
    vertex -241.52366975238985 209.57644379985965 4.988109277303421
    vertex -244.0857356890069 209.63744602366745 4.548532830323273
    vertex -244.0857356890069 209.57644379985965 4.988109277303421
  endloop
endfacet
facet normal -2.652824218656382e-30 0.9640918768231606 0.2655689233393018
  outer loop
    vertex -244.0857356890069 209.63744602366745 4.548532830323273
    vertex -241.52366975238985 209.57644379985965 4.988109277303421
    vertex -241.52366975238985 209.63744602366745 4.548532830323273
  endloop
endfacet
facet normal -2.652824218656382e-30 0.9640918768231606 0.2655689233393018
  outer loop
    vertex -241.52366975238985 209.63744602366745 4.548532830323273
    vertex -244.0857356890069 209.8101404033614 4.139723124871831
    vertex -244.0857356890069 209.63744602366745 4.548532830323273
  endloop
endfacet
facet normal -2.3733000706006087e-30 0.8625069475914083 0.5060452206636794
  outer loop
    vertex -244.0857356890069 209.8101404033614 4.139723124871831
    vertex -241.52366975238985 209.63744602366745 4.548532830323273
    vertex -241.52366975238985 209.8101404033614 4.139723124871831
  endloop
endfacet
facet normal -2.3733000706006087e-30 0.8625069475914083 0.5060452206636794
  outer loop
    vertex -241.52366975238985 209.8101404033614 4.139723124871831
    vertex -244.0857356890069 210.08275810235637 3.789539866785622
    vertex -244.0857356890069 209.8101404033614 4.139723124871831
  endloop
endfacet
facet normal -1.9320394447972148e-30 0.7021435952414272 0.7120353724790944
  outer loop
    vertex -244.0857356890069 210.08275810235637 3.789539866785622
    vertex -241.52366975238985 209.8101404033614 4.139723124871831
    vertex -241.52366975238985 210.08275810235637 3.789539866785622
  endloop
endfacet
facet normal -1.3591135236770312e-30 0.49393031722289515 0.8695014903541514
  outer loop
    vertex -241.52366975238985 210.4367206749879 3.521847466398025
    vertex -244.0857356890069 210.08275810235637 3.789539866785622
    vertex -241.52366975238985 210.08275810235637 3.789539866785622
  endloop
endfacet
facet normal -1.9320394447972148e-30 0.7021435952414272 0.7120353724790944
  outer loop
    vertex -244.0857356890069 210.08275810235637 3.789539866785622
    vertex -241.52366975238985 210.4367206749879 3.521847466398025
    vertex -244.0857356890069 210.4367206749879 3.521847466398025
  endloop
endfacet
facet normal -0.48523037406937736 0.8743863471489547 1.456145782533982e-15
  outer loop
    vertex -172.00563568900685 254.78515271195505 10.00000000000016
    vertex -174.81804041496892 253.224441932718 1.593281062639562e-13
    vertex -174.81804041496892 253.224441932718 10.000000000000158
  endloop
endfacet
facet normal -0.48523037406937736 0.8743863471489547 1.456145782533982e-15
  outer loop
    vertex -174.81804041496892 253.224441932718 1.593281062639562e-13
    vertex -172.00563568900685 254.78515271195505 10.00000000000016
    vertex -172.00563568900685 254.78515271195505 1.6214807274650411e-13
  endloop
endfacet
facet normal -0.0 -1.0 -1.6653345369377348e-15
  outer loop
    vertex -174.81804041496892 253.224441932718 1.593281062639562e-13
    vertex -171.17550879185018 253.224441932718 4.168263720665094
    vertex -174.81804041496892 253.224441932718 10.000000000000158
  endloop
endfacet
facet normal -0.0 -1.0 -1.6653345369377348e-15
  outer loop
    vertex -171.17550879185018 253.224441932718 4.168263720665094
    vertex -174.81804041496892 253.224441932718 1.593281062639562e-13
    vertex -170.90971994527723 253.224441932718 3.812869554862371
  endloop
endfacet
facet normal -0.0 -1.0 -1.6653345369377348e-15
  outer loop
    vertex -170.90971994527723 253.224441932718 3.812869554862371
    vertex -174.81804041496892 253.224441932718 1.593281062639562e-13
    vertex -170.56100485540478 253.224441932718 3.5383763670699664
  endloop
endfacet
facet normal -0.0 -1.0 -1.6653345369377348e-15
  outer loop
    vertex -170.56100485540478 253.224441932718 3.5383763670699664
    vertex -174.81804041496892 253.224441932718 1.593281062639562e-13
    vertex -164.56770162562393 253.224441932718 1.593281062639562e-13
  endloop
endfacet
facet normal -0.0 -1.0 -1.6653345369377348e-15
  outer loop
    vertex -174.81804041496892 253.224441932718 10.000000000000158
    vertex -171.17550879185018 253.224441932718 4.168263720665094
    vertex -171.34025832446648 253.224441932718 4.580339339395313
  endloop
endfacet
facet normal -0.0 -1.0 -1.6653345369377348e-15
  outer loop
    vertex -174.81804041496892 253.224441932718 10.000000000000158
    vertex -171.34025832446648 253.224441932718 4.580339339395313
    vertex -171.39274113473985 253.224441932718 5.021014138623716
  endloop
endfacet
facet normal -0.0 -1.0 -1.6653345369377348e-15
  outer loop
    vertex -170.56100485540478 253.224441932718 3.5383763670699664
    vertex -164.56770162562393 253.224441932718 1.593281062639562e-13
    vertex -170.1531278793287 253.224441932718 3.363490414414499
  endloop
endfacet
facet normal -0.0 -1.0 -1.6653345369377348e-15
  outer loop
    vertex -170.1531278793287 253.224441932718 3.363490414414499
    vertex -164.56770162562393 253.224441932718 1.593281062639562e-13
    vertex -169.71388515892 253.224441932718 3.3001298855567276
  endloop
endfacet
facet normal -0.0 -1.0 -1.6653345369377348e-15
  outer loop
    vertex -169.71388515892 253.224441932718 3.3001298855567276
    vertex -164.56770162562393 253.224441932718 1.593281062639562e-13
    vertex -169.27321035969157 253.224441932718 3.352612695830092
  endloop
endfacet
facet normal -0.0 -1.0 -1.6653345369377348e-15
  outer loop
    vertex -169.27321035969157 253.224441932718 3.352612695830092
    vertex -164.56770162562393 253.224441932718 1.593281062639562e-13
    vertex -168.86113474096138 253.224441932718 3.5173622284464052
  endloop
endfacet
facet normal -0.0 -1.0 -1.6653345369377348e-15
  outer loop
    vertex -168.86113474096138 253.224441932718 3.5173622284464052
    vertex -164.56770162562393 253.224441932718 1.593281062639562e-13
    vertex -168.50574057515863 253.224441932718 3.7831510750193416
  endloop
endfacet
facet normal -0.0 -1.0 -1.6653345369377348e-15
  outer loop
    vertex -168.50574057515863 253.224441932718 3.7831510750193416
    vertex -164.56770162562393 253.224441932718 1.593281062639562e-13
    vertex -168.23124738736624 253.224441932718 4.13186616489179
  endloop
endfacet
facet normal -0.0 -1.0 -1.6653345369377348e-15
  outer loop
    vertex -168.23124738736624 253.224441932718 4.13186616489179
    vertex -164.56770162562393 253.224441932718 1.593281062639562e-13
    vertex -168.05636143471077 253.224441932718 4.539743140967877
  endloop
endfacet
facet normal -0.0 -1.0 -1.6653345369377348e-15
  outer loop
    vertex -168.05636143471077 253.224441932718 4.539743140967877
    vertex -164.56770162562393 253.224441932718 1.593281062639562e-13
    vertex -167.993000905853 253.224441932718 4.978985861376589
  endloop
endfacet
facet normal -0.0 -1.0 -1.6653345369377348e-15
  outer loop
    vertex -174.81804041496892 253.224441932718 10.000000000000158
    vertex -170.5246072996315 253.224441932718 6.4826377715539065
    vertex -164.56770162562393 253.224441932718 10.000000000000158
  endloop
endfacet
facet normal -0.0 -1.0 -1.6653345369377348e-15
  outer loop
    vertex -170.5246072996315 253.224441932718 6.4826377715539065
    vertex -174.81804041496892 253.224441932718 10.000000000000158
    vertex -170.8800014654342 253.224441932718 6.216848924980971
  endloop
endfacet
facet normal -0.0 -1.0 -1.6653345369377348e-15
  outer loop
    vertex -170.8800014654342 253.224441932718 6.216848924980971
    vertex -174.81804041496892 253.224441932718 10.000000000000158
    vertex -171.1544946532266 253.224441932718 5.868133835108522
  endloop
endfacet
facet normal -0.0 -1.0 -1.6653345369377348e-15
  outer loop
    vertex -171.1544946532266 253.224441932718 5.868133835108522
    vertex -174.81804041496892 253.224441932718 10.000000000000158
    vertex -171.32938060588208 253.224441932718 5.460256859032435
  endloop
endfacet
facet normal -0.0 -1.0 -1.6653345369377348e-15
  outer loop
    vertex -171.32938060588208 253.224441932718 5.460256859032435
    vertex -174.81804041496892 253.224441932718 10.000000000000158
    vertex -171.39274113473985 253.224441932718 5.021014138623716
  endloop
endfacet
facet normal -0.0 -1.0 -1.6653345369377348e-15
  outer loop
    vertex -164.56770162562393 253.224441932718 10.000000000000158
    vertex -170.5246072996315 253.224441932718 6.4826377715539065
    vertex -170.11253168090127 253.224441932718 6.64738730417022
  endloop
endfacet
facet normal -0.0 -1.0 -1.6653345369377348e-15
  outer loop
    vertex -164.56770162562393 253.224441932718 10.000000000000158
    vertex -170.11253168090127 253.224441932718 6.64738730417022
    vertex -169.67185688167285 253.224441932718 6.699870114443584
  endloop
endfacet
facet normal -0.0 -1.0 -1.6653345369377348e-15
  outer loop
    vertex -164.56770162562393 253.224441932718 10.000000000000158
    vertex -169.67185688167285 253.224441932718 6.699870114443584
    vertex -169.23261416126414 253.224441932718 6.636509585585813
  endloop
endfacet
facet normal -0.0 -1.0 -1.6653345369377348e-15
  outer loop
    vertex -164.56770162562393 253.224441932718 10.000000000000158
    vertex -169.23261416126414 253.224441932718 6.636509585585813
    vertex -168.82473718518807 253.224441932718 6.461623632930346
  endloop
endfacet
facet normal -0.0 -1.0 -1.6653345369377348e-15
  outer loop
    vertex -164.56770162562393 253.224441932718 10.000000000000158
    vertex -168.82473718518807 253.224441932718 6.461623632930346
    vertex -168.4760220953156 253.224441932718 6.1871304451379405
  endloop
endfacet
facet normal -0.0 -1.0 -1.6653345369377348e-15
  outer loop
    vertex -164.56770162562393 253.224441932718 10.000000000000158
    vertex -168.4760220953156 253.224441932718 6.1871304451379405
    vertex -168.21023324874267 253.224441932718 5.831736279335217
  endloop
endfacet
facet normal -0.0 -1.0 -1.6653345369377348e-15
  outer loop
    vertex -164.56770162562393 253.224441932718 10.000000000000158
    vertex -168.21023324874267 253.224441932718 5.831736279335217
    vertex -168.04548371612637 253.224441932718 5.419660660604999
  endloop
endfacet
facet normal -0.0 -1.0 -1.6653345369377348e-15
  outer loop
    vertex -164.56770162562393 253.224441932718 10.000000000000158
    vertex -168.04548371612637 253.224441932718 5.419660660604999
    vertex -167.993000905853 253.224441932718 4.978985861376589
  endloop
endfacet
facet normal -0.0 -1.0 -1.6653345369377348e-15
  outer loop
    vertex -164.56770162562393 253.224441932718 10.000000000000158
    vertex -167.993000905853 253.224441932718 4.978985861376589
    vertex -164.56770162562393 253.224441932718 1.593281062639562e-13
  endloop
endfacet
facet normal 0.520236926412336 -0.8540219788723509 -1.4222322967200345e-15
  outer loop
    vertex -162.00563568900688 254.78515271195505 1.6214807274650411e-13
    vertex -164.56770162562393 253.224441932718 10.000000000000158
    vertex -164.56770162562393 253.224441932718 1.593281062639562e-13
  endloop
endfacet
facet normal 0.520236926412336 -0.8540219788723509 -1.4222322967200345e-15
  outer loop
    vertex -164.56770162562393 253.224441932718 10.000000000000158
    vertex -162.00563568900688 254.78515271195505 1.6214807274650411e-13
    vertex -162.00563568900688 254.78515271195505 10.00000000000016
  endloop
endfacet
facet normal 0.0 1.0 1.6653345369377348e-15
  outer loop
    vertex -172.00563568900685 254.78515271195505 10.00000000000016
    vertex -171.39274113473985 254.785152711955 5.02101413862372
    vertex -172.00563568900685 254.78515271195505 1.6214807274650411e-13
  endloop
endfacet
facet normal 0.0 1.0 1.6653345369377348e-15
  outer loop
    vertex -171.39274113473985 254.785152711955 5.02101413862372
    vertex -172.00563568900685 254.78515271195505 10.00000000000016
    vertex -171.32938060588208 254.785152711955 5.460256859032437
  endloop
endfacet
facet normal 0.0 1.0 1.6653345369377348e-15
  outer loop
    vertex -171.32938060588208 254.785152711955 5.460256859032437
    vertex -172.00563568900685 254.78515271195505 10.00000000000016
    vertex -171.1544946532266 254.785152711955 5.868133835108525
  endloop
endfacet
facet normal 0.0 1.0 1.6653345369377348e-15
  outer loop
    vertex -171.1544946532266 254.785152711955 5.868133835108525
    vertex -172.00563568900685 254.78515271195505 10.00000000000016
    vertex -170.8800014654342 254.785152711955 6.216848924980973
  endloop
endfacet
facet normal 0.0 1.0 1.6653345369377348e-15
  outer loop
    vertex -170.8800014654342 254.785152711955 6.216848924980973
    vertex -172.00563568900685 254.78515271195505 10.00000000000016
    vertex -170.5246072996315 254.785152711955 6.482637771553909
  endloop
endfacet
facet normal 0.0 1.0 1.6653345369377348e-15
  outer loop
    vertex -170.5246072996315 254.785152711955 6.482637771553909
    vertex -172.00563568900685 254.78515271195505 10.00000000000016
    vertex -162.00563568900688 254.78515271195505 10.00000000000016
  endloop
endfacet
facet normal 0.0 1.0 1.6653345369377348e-15
  outer loop
    vertex -170.5246072996315 254.785152711955 6.482637771553909
    vertex -162.00563568900688 254.78515271195505 10.00000000000016
    vertex -170.11253168090127 254.785152711955 6.6473873041702225
  endloop
endfacet
facet normal 0.0 1.0 1.6653345369377348e-15
  outer loop
    vertex -170.11253168090127 254.785152711955 6.6473873041702225
    vertex -162.00563568900688 254.78515271195505 10.00000000000016
    vertex -169.67185688167285 254.785152711955 6.699870114443587
  endloop
endfacet
facet normal 0.0 1.0 1.6653345369377348e-15
  outer loop
    vertex -169.67185688167285 254.785152711955 6.699870114443587
    vertex -162.00563568900688 254.78515271195505 10.00000000000016
    vertex -169.23261416126414 254.785152711955 6.636509585585816
  endloop
endfacet
facet normal 0.0 1.0 1.6653345369377348e-15
  outer loop
    vertex -169.23261416126414 254.785152711955 6.636509585585816
    vertex -162.00563568900688 254.78515271195505 10.00000000000016
    vertex -168.82473718518807 254.785152711955 6.4616236329303485
  endloop
endfacet
facet normal 0.0 1.0 1.6653345369377348e-15
  outer loop
    vertex -168.82473718518807 254.785152711955 6.4616236329303485
    vertex -162.00563568900688 254.78515271195505 10.00000000000016
    vertex -168.4760220953156 254.785152711955 6.187130445137944
  endloop
endfacet
facet normal 0.0 1.0 1.6653345369377348e-15
  outer loop
    vertex -168.4760220953156 254.785152711955 6.187130445137944
    vertex -162.00563568900688 254.78515271195505 10.00000000000016
    vertex -168.21023324874267 254.785152711955 5.83173627933522
  endloop
endfacet
facet normal 0.0 1.0 1.6653345369377348e-15
  outer loop
    vertex -168.21023324874267 254.785152711955 5.83173627933522
    vertex -162.00563568900688 254.78515271195505 10.00000000000016
    vertex -168.04548371612637 254.785152711955 5.419660660605001
  endloop
endfacet
facet normal 0.0 1.0 1.6653345369377348e-15
  outer loop
    vertex -168.04548371612637 254.785152711955 5.419660660605001
    vertex -162.00563568900688 254.78515271195505 10.00000000000016
    vertex -167.993000905853 254.785152711955 4.978985861376592
  endloop
endfacet
facet normal 0.0 1.0 1.6653345369377348e-15
  outer loop
    vertex -172.00563568900685 254.78515271195505 1.6214807274650411e-13
    vertex -170.1531278793287 254.785152711955 3.363490414414502
    vertex -162.00563568900688 254.78515271195505 1.6214807274650411e-13
  endloop
endfacet
facet normal 0.0 1.0 1.6653345369377348e-15
  outer loop
    vertex -170.1531278793287 254.785152711955 3.363490414414502
    vertex -172.00563568900685 254.78515271195505 1.6214807274650411e-13
    vertex -170.56100485540478 254.785152711955 3.538376367069969
  endloop
endfacet
facet normal 0.0 1.0 1.6653345369377348e-15
  outer loop
    vertex -170.56100485540478 254.785152711955 3.538376367069969
    vertex -172.00563568900685 254.78515271195505 1.6214807274650411e-13
    vertex -170.90971994527723 254.785152711955 3.8128695548623734
  endloop
endfacet
facet normal 0.0 1.0 1.6653345369377348e-15
  outer loop
    vertex -170.90971994527723 254.785152711955 3.8128695548623734
    vertex -172.00563568900685 254.78515271195505 1.6214807274650411e-13
    vertex -171.17550879185018 254.785152711955 4.168263720665097
  endloop
endfacet
facet normal 0.0 1.0 1.6653345369377348e-15
  outer loop
    vertex -171.17550879185018 254.785152711955 4.168263720665097
    vertex -172.00563568900685 254.78515271195505 1.6214807274650411e-13
    vertex -171.34025832446648 254.785152711955 4.580339339395316
  endloop
endfacet
facet normal 0.0 1.0 1.6653345369377348e-15
  outer loop
    vertex -171.34025832446648 254.785152711955 4.580339339395316
    vertex -172.00563568900685 254.78515271195505 1.6214807274650411e-13
    vertex -171.39274113473985 254.785152711955 5.02101413862372
  endloop
endfacet
facet normal 0.0 1.0 1.6653345369377348e-15
  outer loop
    vertex -162.00563568900688 254.78515271195505 1.6214807274650411e-13
    vertex -170.1531278793287 254.785152711955 3.363490414414502
    vertex -169.71388515892 254.785152711955 3.3001298855567307
  endloop
endfacet
facet normal 0.0 1.0 1.6653345369377348e-15
  outer loop
    vertex -162.00563568900688 254.78515271195505 1.6214807274650411e-13
    vertex -169.71388515892 254.785152711955 3.3001298855567307
    vertex -169.27321035969157 254.785152711955 3.3526126958300946
  endloop
endfacet
facet normal 0.0 1.0 1.6653345369377348e-15
  outer loop
    vertex -162.00563568900688 254.78515271195505 1.6214807274650411e-13
    vertex -169.27321035969157 254.785152711955 3.3526126958300946
    vertex -168.86113474096138 254.785152711955 3.5173622284464083
  endloop
endfacet
facet normal 0.0 1.0 1.6653345369377348e-15
  outer loop
    vertex -162.00563568900688 254.78515271195505 1.6214807274650411e-13
    vertex -168.86113474096138 254.785152711955 3.5173622284464083
    vertex -168.50574057515863 254.785152711955 3.7831510750193442
  endloop
endfacet
facet normal 0.0 1.0 1.6653345369377348e-15
  outer loop
    vertex -162.00563568900688 254.78515271195505 1.6214807274650411e-13
    vertex -168.50574057515863 254.785152711955 3.7831510750193442
    vertex -168.23124738736624 254.785152711955 4.131866164891792
  endloop
endfacet
facet normal 0.0 1.0 1.6653345369377348e-15
  outer loop
    vertex -162.00563568900688 254.78515271195505 1.6214807274650411e-13
    vertex -168.23124738736624 254.785152711955 4.131866164891792
    vertex -168.05636143471077 254.785152711955 4.53974314096788
  endloop
endfacet
facet normal 0.0 1.0 1.6653345369377348e-15
  outer loop
    vertex -162.00563568900688 254.78515271195505 1.6214807274650411e-13
    vertex -168.05636143471077 254.785152711955 4.53974314096788
    vertex -167.993000905853 254.785152711955 4.978985861376592
  endloop
endfacet
facet normal 0.0 1.0 1.6653345369377348e-15
  outer loop
    vertex -162.00563568900688 254.78515271195505 1.6214807274650411e-13
    vertex -167.993000905853 254.785152711955 4.978985861376592
    vertex -162.00563568900688 254.78515271195505 10.00000000000016
  endloop
endfacet
facet normal 0.0 1.6653345369377348e-15 -1.0
  outer loop
    vertex -172.00563568900685 254.78515271195505 1.6214807274650411e-13
    vertex -164.56770162562393 253.224441932718 1.593281062639562e-13
    vertex -174.81804041496892 253.224441932718 1.593281062639562e-13
  endloop
endfacet
facet normal 0.0 1.6653345369377348e-15 -1.0
  outer loop
    vertex -164.56770162562393 253.224441932718 1.593281062639562e-13
    vertex -172.00563568900685 254.78515271195505 1.6214807274650411e-13
    vertex -162.00563568900688 254.78515271195505 1.6214807274650411e-13
  endloop
endfacet
facet normal 0.0 -1.6653345369377348e-15 1.0
  outer loop
    vertex -162.00563568900688 254.78515271195505 10.00000000000016
    vertex -174.81804041496892 253.224441932718 10.000000000000158
    vertex -164.56770162562393 253.224441932718 10.000000000000158
  endloop
endfacet
facet normal 0.0 -1.6653345369377348e-15 1.0
  outer loop
    vertex -174.81804041496892 253.224441932718 10.000000000000158
    vertex -162.00563568900688 254.78515271195505 10.00000000000016
    vertex -172.00563568900685 254.78515271195505 10.00000000000016
  endloop
endfacet
facet normal 0.8721398656198537 -8.147759715298616e-16 0.4892566349029758
  outer loop
    vertex -171.17550879185018 253.224441932718 4.168263720665094
    vertex -171.34025832446648 254.785152711955 4.580339339395316
    vertex -171.34025832446648 253.224441932718 4.580339339395313
  endloop
endfacet
facet normal 0.9690513553941549 -4.111031717054984e-16 0.24685921212049486
  outer loop
    vertex -171.34025832446648 254.785152711955 4.580339339395316
    vertex -171.17550879185018 253.224441932718 4.168263720665094
    vertex -171.17550879185018 254.785152711955 4.168263720665097
  endloop
endfacet
facet normal 0.7157934852828333 -1.162923135375422e-15 0.6983120265516373
  outer loop
    vertex -170.90971994527723 253.224441932718 3.812869554862371
    vertex -171.17550879185018 254.785152711955 4.168263720665097
    vertex -171.17550879185018 253.224441932718 4.168263720665094
  endloop
endfacet
facet normal 0.8721398656198537 -8.147759715298616e-16 0.4892566349029758
  outer loop
    vertex -171.17550879185018 254.785152711955 4.168263720665097
    vertex -170.90971994527723 253.224441932718 3.812869554862371
    vertex -170.90971994527723 254.785152711955 3.8128695548623734
  endloop
endfacet
facet normal 0.5106669618284487 -1.4318190093664984e-15 0.859778607605994
  outer loop
    vertex -170.56100485540478 254.785152711955 3.538376367069969
    vertex -170.90971994527723 253.224441932718 3.812869554862371
    vertex -170.56100485540478 253.224441932718 3.5383763670699664
  endloop
endfacet
facet normal 0.7157934852828333 -1.162923135375422e-15 0.6983120265516373
  outer loop
    vertex -170.90971994527723 253.224441932718 3.812869554862371
    vertex -170.56100485540478 254.785152711955 3.538376367069969
    vertex -170.90971994527723 254.785152711955 3.8128695548623734
  endloop
endfacet
facet normal 0.2707393288425154 -1.6031387840620334e-15 0.9626526974033285
  outer loop
    vertex -170.1531278793287 254.785152711955 3.363490414414502
    vertex -170.56100485540478 253.224441932718 3.5383763670699664
    vertex -170.1531278793287 253.224441932718 3.363490414414499
  endloop
endfacet
facet normal 0.5106669618284487 -1.4318190093664984e-15 0.859778607605994
  outer loop
    vertex -170.56100485540478 253.224441932718 3.5383763670699664
    vertex -170.1531278793287 254.785152711955 3.363490414414502
    vertex -170.56100485540478 254.785152711955 3.538376367069969
  endloop
endfacet
facet normal 0.012361258013862814 -1.6652072999358465e-15 0.9999235967314277
  outer loop
    vertex -169.71388515892 254.785152711955 3.3001298855567307
    vertex -170.1531278793287 253.224441932718 3.363490414414499
    vertex -169.71388515892 253.224441932718 3.3001298855567276
  endloop
endfacet
facet normal 0.2707393288425154 -1.6031387840620334e-15 0.9626526974033285
  outer loop
    vertex -170.1531278793287 253.224441932718 3.363490414414499
    vertex -169.71388515892 254.785152711955 3.3001298855567307
    vertex -170.1531278793287 254.785152711955 3.363490414414502
  endloop
endfacet
facet normal -0.24685921212049594 -1.6137946902042088e-15 0.9690513553941547
  outer loop
    vertex -169.27321035969157 254.785152711955 3.3526126958300946
    vertex -169.71388515892 253.224441932718 3.3001298855567276
    vertex -169.27321035969157 253.224441932718 3.352612695830092
  endloop
endfacet
facet normal 0.012361258013862814 -1.6652072999358465e-15 0.9999235967314277
  outer loop
    vertex -169.71388515892 253.224441932718 3.3001298855567276
    vertex -169.27321035969157 254.785152711955 3.3526126958300946
    vertex -169.71388515892 254.785152711955 3.3001298855567307
  endloop
endfacet
facet normal -0.4892566349029781 -1.452404639256975e-15 0.8721398656198522
  outer loop
    vertex -168.86113474096138 254.785152711955 3.5173622284464083
    vertex -169.27321035969157 253.224441932718 3.352612695830092
    vertex -168.86113474096138 253.224441932718 3.5173622284464052
  endloop
endfacet
facet normal -0.24685921212049594 -1.6137946902042088e-15 0.9690513553941547
  outer loop
    vertex -169.27321035969157 253.224441932718 3.352612695830092
    vertex -168.86113474096138 254.785152711955 3.5173622284464083
    vertex -169.27321035969157 254.785152711955 3.3526126958300946
  endloop
endfacet
facet normal -0.6983120265516374 -1.1920356123565341e-15 0.715793485282833
  outer loop
    vertex -168.50574057515863 254.785152711955 3.7831510750193442
    vertex -168.86113474096138 253.224441932718 3.5173622284464052
    vertex -168.50574057515863 253.224441932718 3.7831510750193416
  endloop
endfacet
facet normal -0.4892566349029781 -1.452404639256975e-15 0.8721398656198522
  outer loop
    vertex -168.86113474096138 253.224441932718 3.5173622284464052
    vertex -168.50574057515863 254.785152711955 3.7831510750193442
    vertex -168.86113474096138 254.785152711955 3.5173622284464083
  endloop
endfacet
facet normal -0.6983120265516374 -1.1920356123565341e-15 0.715793485282833
  outer loop
    vertex -168.50574057515863 254.785152711955 3.7831510750193442
    vertex -168.23124738736624 253.224441932718 4.13186616489179
    vertex -168.23124738736624 254.785152711955 4.131866164891792
  endloop
endfacet
facet normal -0.8597786076059919 -8.504313284059859e-16 0.5106669618284525
  outer loop
    vertex -168.23124738736624 253.224441932718 4.13186616489179
    vertex -168.50574057515863 254.785152711955 3.7831510750193442
    vertex -168.50574057515863 253.224441932718 3.7831510750193416
  endloop
endfacet
facet normal -0.8597786076059919 -8.504313284059859e-16 0.5106669618284525
  outer loop
    vertex -168.23124738736624 254.785152711955 4.131866164891792
    vertex -168.05636143471077 253.224441932718 4.539743140967877
    vertex -168.05636143471077 254.785152711955 4.53974314096788
  endloop
endfacet
facet normal -0.9626526974033283 -4.508715548287847e-16 0.27073932884251617
  outer loop
    vertex -168.05636143471077 253.224441932718 4.539743140967877
    vertex -168.23124738736624 254.785152711955 4.131866164891792
    vertex -168.23124738736624 253.224441932718 4.13186616489179
  endloop
endfacet
facet normal -0.9626526974033283 -4.508715548287847e-16 0.27073932884251617
  outer loop
    vertex -168.05636143471077 254.785152711955 4.53974314096788
    vertex -167.993000905853 253.224441932718 4.978985861376589
    vertex -167.993000905853 254.785152711955 4.978985861376592
  endloop
endfacet
facet normal -0.9999235967314278 -2.0585629890480268e-17 0.012361258013860519
  outer loop
    vertex -167.993000905853 253.224441932718 4.978985861376589
    vertex -168.05636143471077 254.785152711955 4.53974314096788
    vertex -168.05636143471077 253.224441932718 4.539743140967877
  endloop
endfacet
facet normal -0.9999235967314278 -2.0585629890480268e-17 0.012361258013860519
  outer loop
    vertex -167.993000905853 254.785152711955 4.978985861376592
    vertex -168.04548371612637 253.224441932718 5.419660660604999
    vertex -168.04548371612637 254.785152711955 5.419660660605001
  endloop
endfacet
facet normal -0.9690513553941553 4.1110317170549483e-16 -0.24685921212049275
  outer loop
    vertex -168.04548371612637 253.224441932718 5.419660660604999
    vertex -167.993000905853 254.785152711955 4.978985861376592
    vertex -167.993000905853 253.224441932718 4.978985861376589
  endloop
endfacet
facet normal -0.9690513553941553 4.1110317170549483e-16 -0.24685921212049275
  outer loop
    vertex -168.04548371612637 254.785152711955 5.419660660605001
    vertex -168.21023324874267 253.224441932718 5.831736279335217
    vertex -168.21023324874267 254.785152711955 5.83173627933522
  endloop
endfacet
facet normal -0.8721398656198537 8.147759715298613e-16 -0.4892566349029756
  outer loop
    vertex -168.21023324874267 253.224441932718 5.831736279335217
    vertex -168.04548371612637 254.785152711955 5.419660660605001
    vertex -168.04548371612637 253.224441932718 5.419660660604999
  endloop
endfacet
facet normal -0.8721398656198537 8.147759715298613e-16 -0.4892566349029756
  outer loop
    vertex -168.21023324874267 254.785152711955 5.83173627933522
    vertex -168.4760220953156 253.224441932718 6.1871304451379405
    vertex -168.4760220953156 254.785152711955 6.187130445137944
  endloop
endfacet
facet normal -0.7157934852828317 1.1629231353754246e-15 -0.6983120265516388
  outer loop
    vertex -168.4760220953156 253.224441932718 6.1871304451379405
    vertex -168.21023324874267 254.785152711955 5.83173627933522
    vertex -168.21023324874267 253.224441932718 5.831736279335217
  endloop
endfacet
facet normal -0.5106669618284483 1.4318190093664988e-15 -0.8597786076059942
  outer loop
    vertex -168.82473718518807 254.785152711955 6.4616236329303485
    vertex -168.4760220953156 253.224441932718 6.1871304451379405
    vertex -168.82473718518807 253.224441932718 6.461623632930346
  endloop
endfacet
facet normal -0.7157934852828317 1.1629231353754246e-15 -0.6983120265516388
  outer loop
    vertex -168.4760220953156 253.224441932718 6.1871304451379405
    vertex -168.82473718518807 254.785152711955 6.4616236329303485
    vertex -168.4760220953156 254.785152711955 6.187130445137944
  endloop
endfacet
facet normal -0.270739328842516 1.6031387840620332e-15 -0.9626526974033284
  outer loop
    vertex -169.23261416126414 254.785152711955 6.636509585585816
    vertex -168.82473718518807 253.224441932718 6.461623632930346
    vertex -169.23261416126414 253.224441932718 6.636509585585813
  endloop
endfacet
facet normal -0.5106669618284483 1.4318190093664988e-15 -0.8597786076059942
  outer loop
    vertex -168.82473718518807 253.224441932718 6.461623632930346
    vertex -169.23261416126414 254.785152711955 6.636509585585816
    vertex -168.82473718518807 254.785152711955 6.4616236329303485
  endloop
endfacet
facet normal -0.012361258013863018 1.6652072999358465e-15 -0.9999235967314277
  outer loop
    vertex -169.67185688167285 254.785152711955 6.699870114443587
    vertex -169.23261416126414 253.224441932718 6.636509585585813
    vertex -169.67185688167285 253.224441932718 6.699870114443584
  endloop
endfacet
facet normal -0.270739328842516 1.6031387840620332e-15 -0.9626526974033284
  outer loop
    vertex -169.23261416126414 253.224441932718 6.636509585585813
    vertex -169.67185688167285 254.785152711955 6.699870114443587
    vertex -169.23261416126414 254.785152711955 6.636509585585816
  endloop
endfacet
facet normal 0.24685921212049639 1.6137946902042088e-15 -0.9690513553941545
  outer loop
    vertex -170.11253168090127 254.785152711955 6.6473873041702225
    vertex -169.67185688167285 253.224441932718 6.699870114443584
    vertex -170.11253168090127 253.224441932718 6.64738730417022
  endloop
endfacet
facet normal -0.012361258013863018 1.6652072999358465e-15 -0.9999235967314277
  outer loop
    vertex -169.67185688167285 253.224441932718 6.699870114443584
    vertex -170.11253168090127 254.785152711955 6.6473873041702225
    vertex -169.67185688167285 254.785152711955 6.699870114443587
  endloop
endfacet
facet normal 0.4892566349029786 1.4524046392569745e-15 -0.872139865619852
  outer loop
    vertex -170.5246072996315 254.785152711955 6.482637771553909
    vertex -170.11253168090127 253.224441932718 6.64738730417022
    vertex -170.5246072996315 253.224441932718 6.4826377715539065
  endloop
endfacet
facet normal 0.24685921212049639 1.6137946902042088e-15 -0.9690513553941545
  outer loop
    vertex -170.11253168090127 253.224441932718 6.64738730417022
    vertex -170.5246072996315 254.785152711955 6.482637771553909
    vertex -170.11253168090127 254.785152711955 6.6473873041702225
  endloop
endfacet
facet normal 0.6983120265516374 1.1920356123565341e-15 -0.715793485282833
  outer loop
    vertex -170.8800014654342 254.785152711955 6.216848924980973
    vertex -170.5246072996315 253.224441932718 6.4826377715539065
    vertex -170.8800014654342 253.224441932718 6.216848924980971
  endloop
endfacet
facet normal 0.4892566349029786 1.4524046392569745e-15 -0.872139865619852
  outer loop
    vertex -170.5246072996315 253.224441932718 6.4826377715539065
    vertex -170.8800014654342 254.785152711955 6.216848924980973
    vertex -170.5246072996315 254.785152711955 6.482637771553909
  endloop
endfacet
facet normal 0.8597786076059919 8.504313284059859e-16 -0.5106669618284525
  outer loop
    vertex -171.1544946532266 253.224441932718 5.868133835108522
    vertex -170.8800014654342 254.785152711955 6.216848924980973
    vertex -170.8800014654342 253.224441932718 6.216848924980971
  endloop
endfacet
facet normal 0.6983120265516374 1.1920356123565341e-15 -0.715793485282833
  outer loop
    vertex -170.8800014654342 254.785152711955 6.216848924980973
    vertex -171.1544946532266 253.224441932718 5.868133835108522
    vertex -171.1544946532266 254.785152711955 5.868133835108525
  endloop
endfacet
facet normal 0.9626526974033287 4.508715548287834e-16 -0.27073932884251534
  outer loop
    vertex -171.32938060588208 253.224441932718 5.460256859032435
    vertex -171.1544946532266 254.785152711955 5.868133835108525
    vertex -171.1544946532266 253.224441932718 5.868133835108522
  endloop
endfacet
facet normal 0.8597786076059919 8.504313284059859e-16 -0.5106669618284525
  outer loop
    vertex -171.1544946532266 254.785152711955 5.868133835108525
    vertex -171.32938060588208 253.224441932718 5.460256859032435
    vertex -171.32938060588208 254.785152711955 5.460256859032437
  endloop
endfacet
facet normal 0.9999235967314278 2.0585629890477498e-17 -0.012361258013858853
  outer loop
    vertex -171.39274113473985 253.224441932718 5.021014138623716
    vertex -171.32938060588208 254.785152711955 5.460256859032437
    vertex -171.32938060588208 253.224441932718 5.460256859032435
  endloop
endfacet
facet normal 0.9626526974033287 4.508715548287834e-16 -0.27073932884251534
  outer loop
    vertex -171.32938060588208 254.785152711955 5.460256859032437
    vertex -171.39274113473985 253.224441932718 5.021014138623716
    vertex -171.39274113473985 254.785152711955 5.02101413862372
  endloop
endfacet
facet normal 0.9690513553941549 -4.111031717054984e-16 0.24685921212049486
  outer loop
    vertex -171.34025832446648 253.224441932718 4.580339339395313
    vertex -171.39274113473985 254.785152711955 5.02101413862372
    vertex -171.39274113473985 253.224441932718 5.021014138623716
  endloop
endfacet
facet normal 0.9999235967314278 2.0585629890477498e-17 -0.012361258013858853
  outer loop
    vertex -171.39274113473985 254.785152711955 5.02101413862372
    vertex -171.34025832446648 253.224441932718 4.580339339395313
    vertex -171.34025832446648 254.785152711955 4.580339339395316
  endloop
endfacet
endsolid Modified_Thing_63165
