solid Modified_Thing_63165
facet normal -0.48523037406937736 -0.8743863471489547 2.6696006013123e-16
  outer loop
    vertex -172.00563568900685 61.23891672194733 3.000000000000015
    vertex -174.8180404149689 62.79962750118433 13.000000000000012
    vertex -174.8180404149689 62.79962750118433 3.000000000000015
  endloop
endfacet
facet normal -0.48523037406937736 -0.8743863471489547 2.6696006013123e-16
  outer loop
    vertex -174.8180404149689 62.79962750118433 13.000000000000012
    vertex -172.00563568900685 61.23891672194733 3.000000000000015
    vertex -172.00563568900685 61.23891672194733 13.000000000000012
  endloop
endfacet
facet normal -0.0 1.0 -3.0531133177191805e-16
  outer loop
    vertex -174.8180404149689 62.79962750118433 13.000000000000012
    vertex -171.17550879185015 62.79962750118433 8.831736279335077
    vertex -174.8180404149689 62.79962750118433 3.000000000000015
  endloop
endfacet
facet normal -0.0 1.0 -3.0531133177191805e-16
  outer loop
    vertex -171.17550879185015 62.79962750118433 8.831736279335077
    vertex -174.8180404149689 62.79962750118433 13.000000000000012
    vertex -170.9097199452772 62.79962750118433 9.187130445137802
  endloop
endfacet
facet normal -0.0 1.0 -3.0531133177191805e-16
  outer loop
    vertex -170.9097199452772 62.79962750118433 9.187130445137802
    vertex -174.8180404149689 62.79962750118433 13.000000000000012
    vertex -170.56100485540478 62.79962750118433 9.461623632930205
  endloop
endfacet
facet normal -0.0 1.0 -3.0531133177191805e-16
  outer loop
    vertex -170.56100485540478 62.79962750118433 9.461623632930205
    vertex -174.8180404149689 62.79962750118433 13.000000000000012
    vertex -164.56770162562393 62.79962750118433 13.000000000000012
  endloop
endfacet
facet normal -0.0 1.0 -3.0531133177191805e-16
  outer loop
    vertex -174.8180404149689 62.79962750118433 3.000000000000015
    vertex -171.17550879185015 62.79962750118433 8.831736279335077
    vertex -171.34025832446645 62.79962750118433 8.419660660604858
  endloop
endfacet
facet normal -0.0 1.0 -3.0531133177191805e-16
  outer loop
    vertex -174.8180404149689 62.79962750118433 3.000000000000015
    vertex -171.34025832446645 62.79962750118433 8.419660660604858
    vertex -171.39274113473982 62.79962750118433 7.978985861376455
  endloop
endfacet
facet normal -0.0 1.0 -3.0531133177191805e-16
  outer loop
    vertex -170.56100485540478 62.79962750118433 9.461623632930205
    vertex -164.56770162562393 62.79962750118433 13.000000000000012
    vertex -170.15312787932868 62.79962750118433 9.636509585585673
  endloop
endfacet
facet normal -0.0 1.0 -3.0531133177191805e-16
  outer loop
    vertex -170.15312787932868 62.79962750118433 9.636509585585673
    vertex -164.56770162562393 62.79962750118433 13.000000000000012
    vertex -169.71388515891996 62.79962750118433 9.699870114443444
  endloop
endfacet
facet normal -0.0 1.0 -3.0531133177191805e-16
  outer loop
    vertex -169.71388515891996 62.79962750118433 9.699870114443444
    vertex -164.56770162562393 62.79962750118433 13.000000000000012
    vertex -169.27321035969155 62.79962750118433 9.64738730417008
  endloop
endfacet
facet normal -0.0 1.0 -3.0531133177191805e-16
  outer loop
    vertex -169.27321035969155 62.79962750118433 9.64738730417008
    vertex -164.56770162562393 62.79962750118433 13.000000000000012
    vertex -168.86113474096135 62.79962750118433 9.482637771553767
  endloop
endfacet
facet normal -0.0 1.0 -3.0531133177191805e-16
  outer loop
    vertex -168.86113474096135 62.79962750118433 9.482637771553767
    vertex -164.56770162562393 62.79962750118433 13.000000000000012
    vertex -168.5057405751586 62.79962750118433 9.21684892498083
  endloop
endfacet
facet normal -0.0 1.0 -3.0531133177191805e-16
  outer loop
    vertex -168.5057405751586 62.79962750118433 9.21684892498083
    vertex -164.56770162562393 62.79962750118433 13.000000000000012
    vertex -168.2312473873662 62.79962750118433 8.868133835108383
  endloop
endfacet
facet normal -0.0 1.0 -3.0531133177191805e-16
  outer loop
    vertex -168.2312473873662 62.79962750118433 8.868133835108383
    vertex -164.56770162562393 62.79962750118433 13.000000000000012
    vertex -168.05636143471074 62.79962750118433 8.460256859032295
  endloop
endfacet
facet normal -0.0 1.0 -3.0531133177191805e-16
  outer loop
    vertex -168.05636143471074 62.79962750118433 8.460256859032295
    vertex -164.56770162562393 62.79962750118433 13.000000000000012
    vertex -167.99300090585297 62.79962750118433 8.021014138623583
  endloop
endfacet
facet normal -0.0 1.0 -3.0531133177191805e-16
  outer loop
    vertex -174.8180404149689 62.79962750118433 3.000000000000015
    vertex -170.52460729963147 62.79962750118433 6.517362228446266
    vertex -164.56770162562393 62.79962750118433 3.000000000000015
  endloop
endfacet
facet normal -0.0 1.0 -3.0531133177191805e-16
  outer loop
    vertex -170.52460729963147 62.79962750118433 6.517362228446266
    vertex -174.8180404149689 62.79962750118433 3.000000000000015
    vertex -170.88000146543416 62.79962750118433 6.783151075019202
  endloop
endfacet
facet normal -0.0 1.0 -3.0531133177191805e-16
  outer loop
    vertex -170.88000146543416 62.79962750118433 6.783151075019202
    vertex -174.8180404149689 62.79962750118433 3.000000000000015
    vertex -171.1544946532266 62.79962750118433 7.13186616489165
  endloop
endfacet
facet normal -0.0 1.0 -3.0531133177191805e-16
  outer loop
    vertex -171.1544946532266 62.79962750118433 7.13186616489165
    vertex -174.8180404149689 62.79962750118433 3.000000000000015
    vertex -171.32938060588205 62.79962750118433 7.539743140967738
  endloop
endfacet
facet normal -0.0 1.0 -3.0531133177191805e-16
  outer loop
    vertex -171.32938060588205 62.79962750118433 7.539743140967738
    vertex -174.8180404149689 62.79962750118433 3.000000000000015
    vertex -171.39274113473982 62.79962750118433 7.978985861376455
  endloop
endfacet
facet normal -0.0 1.0 -3.0531133177191805e-16
  outer loop
    vertex -164.56770162562393 62.79962750118433 3.000000000000015
    vertex -170.52460729963147 62.79962750118433 6.517362228446266
    vertex -170.11253168090124 62.79962750118433 6.3526126958299525
  endloop
endfacet
facet normal -0.0 1.0 -3.0531133177191805e-16
  outer loop
    vertex -164.56770162562393 62.79962750118433 3.000000000000015
    vertex -170.11253168090124 62.79962750118433 6.3526126958299525
    vertex -169.67185688167282 62.79962750118433 6.300129885556589
  endloop
endfacet
facet normal -0.0 1.0 -3.0531133177191805e-16
  outer loop
    vertex -164.56770162562393 62.79962750118433 3.000000000000015
    vertex -169.67185688167282 62.79962750118433 6.300129885556589
    vertex -169.2326141612641 62.79962750118433 6.363490414414359
  endloop
endfacet
facet normal -0.0 1.0 -3.0531133177191805e-16
  outer loop
    vertex -164.56770162562393 62.79962750118433 3.000000000000015
    vertex -169.2326141612641 62.79962750118433 6.363490414414359
    vertex -168.82473718518804 62.79962750118433 6.5383763670698265
  endloop
endfacet
facet normal -0.0 1.0 -3.0531133177191805e-16
  outer loop
    vertex -164.56770162562393 62.79962750118433 3.000000000000015
    vertex -168.82473718518804 62.79962750118433 6.5383763670698265
    vertex -168.47602209531559 62.79962750118433 6.812869554862231
  endloop
endfacet
facet normal -0.0 1.0 -3.0531133177191805e-16
  outer loop
    vertex -164.56770162562393 62.79962750118433 3.000000000000015
    vertex -168.47602209531559 62.79962750118433 6.812869554862231
    vertex -168.21023324874264 62.79962750118433 7.168263720664955
  endloop
endfacet
facet normal -0.0 1.0 -3.0531133177191805e-16
  outer loop
    vertex -164.56770162562393 62.79962750118433 3.000000000000015
    vertex -168.21023324874264 62.79962750118433 7.168263720664955
    vertex -168.04548371612634 62.79962750118433 7.580339339395174
  endloop
endfacet
facet normal -0.0 1.0 -3.0531133177191805e-16
  outer loop
    vertex -164.56770162562393 62.79962750118433 3.000000000000015
    vertex -168.04548371612634 62.79962750118433 7.580339339395174
    vertex -167.99300090585297 62.79962750118433 8.021014138623583
  endloop
endfacet
facet normal -0.0 1.0 -3.0531133177191805e-16
  outer loop
    vertex -164.56770162562393 62.79962750118433 3.000000000000015
    vertex -167.99300090585297 62.79962750118433 8.021014138623583
    vertex -164.56770162562393 62.79962750118433 13.000000000000012
  endloop
endfacet
facet normal 0.520236926412336 0.8540219788723509 -2.607425877320063e-16
  outer loop
    vertex -162.00563568900685 61.23891672194733 13.000000000000012
    vertex -164.56770162562393 62.79962750118433 3.000000000000015
    vertex -164.56770162562393 62.79962750118433 13.000000000000012
  endloop
endfacet
facet normal 0.520236926412336 0.8540219788723509 -2.607425877320063e-16
  outer loop
    vertex -164.56770162562393 62.79962750118433 3.000000000000015
    vertex -162.00563568900685 61.23891672194733 13.000000000000012
    vertex -162.00563568900685 61.23891672194733 3.000000000000015
  endloop
endfacet
facet normal 0.0 -1.0 3.0531133177191805e-16
  outer loop
    vertex -172.00563568900685 61.23891672194733 3.000000000000015
    vertex -171.39274113473982 61.238916721947334 7.978985861376457
    vertex -172.00563568900685 61.23891672194733 13.000000000000012
  endloop
endfacet
facet normal 0.0 -1.0 3.0531133177191805e-16
  outer loop
    vertex -171.39274113473982 61.238916721947334 7.978985861376457
    vertex -172.00563568900685 61.23891672194733 3.000000000000015
    vertex -171.32938060588205 61.238916721947334 7.539743140967739
  endloop
endfacet
facet normal 0.0 -1.0 3.0531133177191805e-16
  outer loop
    vertex -171.32938060588205 61.238916721947334 7.539743140967739
    vertex -172.00563568900685 61.23891672194733 3.000000000000015
    vertex -171.1544946532266 61.238916721947334 7.131866164891651
  endloop
endfacet
facet normal 0.0 -1.0 3.0531133177191805e-16
  outer loop
    vertex -171.1544946532266 61.238916721947334 7.131866164891651
    vertex -172.00563568900685 61.23891672194733 3.000000000000015
    vertex -170.88000146543416 61.238916721947334 6.7831510750192034
  endloop
endfacet
facet normal 0.0 -1.0 3.0531133177191805e-16
  outer loop
    vertex -170.88000146543416 61.238916721947334 6.7831510750192034
    vertex -172.00563568900685 61.23891672194733 3.000000000000015
    vertex -170.52460729963147 61.238916721947334 6.517362228446268
  endloop
endfacet
facet normal 0.0 -1.0 3.0531133177191805e-16
  outer loop
    vertex -170.52460729963147 61.238916721947334 6.517362228446268
    vertex -172.00563568900685 61.23891672194733 3.000000000000015
    vertex -162.00563568900685 61.23891672194733 3.000000000000015
  endloop
endfacet
facet normal 0.0 -1.0 3.0531133177191805e-16
  outer loop
    vertex -170.52460729963147 61.238916721947334 6.517362228446268
    vertex -162.00563568900685 61.23891672194733 3.000000000000015
    vertex -170.11253168090124 61.238916721947334 6.352612695829954
  endloop
endfacet
facet normal 0.0 -1.0 3.0531133177191805e-16
  outer loop
    vertex -170.11253168090124 61.238916721947334 6.352612695829954
    vertex -162.00563568900685 61.23891672194733 3.000000000000015
    vertex -169.67185688167282 61.238916721947334 6.30012988555659
  endloop
endfacet
facet normal 0.0 -1.0 3.0531133177191805e-16
  outer loop
    vertex -169.67185688167282 61.238916721947334 6.30012988555659
    vertex -162.00563568900685 61.23891672194733 3.000000000000015
    vertex -169.2326141612641 61.238916721947334 6.363490414414361
  endloop
endfacet
facet normal 0.0 -1.0 3.0531133177191805e-16
  outer loop
    vertex -169.2326141612641 61.238916721947334 6.363490414414361
    vertex -162.00563568900685 61.23891672194733 3.000000000000015
    vertex -168.82473718518804 61.238916721947334 6.538376367069828
  endloop
endfacet
facet normal 0.0 -1.0 3.0531133177191805e-16
  outer loop
    vertex -168.82473718518804 61.238916721947334 6.538376367069828
    vertex -162.00563568900685 61.23891672194733 3.000000000000015
    vertex -168.47602209531559 61.238916721947334 6.812869554862233
  endloop
endfacet
facet normal 0.0 -1.0 3.0531133177191805e-16
  outer loop
    vertex -168.47602209531559 61.238916721947334 6.812869554862233
    vertex -162.00563568900685 61.23891672194733 3.000000000000015
    vertex -168.21023324874264 61.238916721947334 7.168263720664957
  endloop
endfacet
facet normal 0.0 -1.0 3.0531133177191805e-16
  outer loop
    vertex -168.21023324874264 61.238916721947334 7.168263720664957
    vertex -162.00563568900685 61.23891672194733 3.000000000000015
    vertex -168.04548371612634 61.238916721947334 7.5803393393951755
  endloop
endfacet
facet normal 0.0 -1.0 3.0531133177191805e-16
  outer loop
    vertex -168.04548371612634 61.238916721947334 7.5803393393951755
    vertex -162.00563568900685 61.23891672194733 3.000000000000015
    vertex -167.99300090585297 61.238916721947334 8.021014138623585
  endloop
endfacet
facet normal 0.0 -1.0 3.0531133177191805e-16
  outer loop
    vertex -172.00563568900685 61.23891672194733 13.000000000000012
    vertex -170.15312787932868 61.238916721947334 9.636509585585673
    vertex -162.00563568900685 61.23891672194733 13.000000000000012
  endloop
endfacet
facet normal 0.0 -1.0 3.0531133177191805e-16
  outer loop
    vertex -170.15312787932868 61.238916721947334 9.636509585585673
    vertex -172.00563568900685 61.23891672194733 13.000000000000012
    vertex -170.56100485540478 61.238916721947334 9.461623632930205
  endloop
endfacet
facet normal 0.0 -1.0 3.0531133177191805e-16
  outer loop
    vertex -170.56100485540478 61.238916721947334 9.461623632930205
    vertex -172.00563568900685 61.23891672194733 13.000000000000012
    vertex -170.9097199452772 61.238916721947334 9.187130445137804
  endloop
endfacet
facet normal 0.0 -1.0 3.0531133177191805e-16
  outer loop
    vertex -170.9097199452772 61.238916721947334 9.187130445137804
    vertex -172.00563568900685 61.23891672194733 13.000000000000012
    vertex -171.17550879185015 61.238916721947334 8.831736279335079
  endloop
endfacet
facet normal 0.0 -1.0 3.0531133177191805e-16
  outer loop
    vertex -171.17550879185015 61.238916721947334 8.831736279335079
    vertex -172.00563568900685 61.23891672194733 13.000000000000012
    vertex -171.34025832446645 61.238916721947334 8.41966066060486
  endloop
endfacet
facet normal 0.0 -1.0 3.0531133177191805e-16
  outer loop
    vertex -171.34025832446645 61.238916721947334 8.41966066060486
    vertex -172.00563568900685 61.23891672194733 13.000000000000012
    vertex -171.39274113473982 61.238916721947334 7.978985861376457
  endloop
endfacet
facet normal 0.0 -1.0 3.0531133177191805e-16
  outer loop
    vertex -162.00563568900685 61.23891672194733 13.000000000000012
    vertex -170.15312787932868 61.238916721947334 9.636509585585673
    vertex -169.71388515891996 61.238916721947334 9.699870114443444
  endloop
endfacet
facet normal 0.0 -1.0 3.0531133177191805e-16
  outer loop
    vertex -162.00563568900685 61.23891672194733 13.000000000000012
    vertex -169.71388515891996 61.238916721947334 9.699870114443444
    vertex -169.27321035969155 61.238916721947334 9.64738730417008
  endloop
endfacet
facet normal 0.0 -1.0 3.0531133177191805e-16
  outer loop
    vertex -162.00563568900685 61.23891672194733 13.000000000000012
    vertex -169.27321035969155 61.238916721947334 9.64738730417008
    vertex -168.86113474096135 61.238916721947334 9.482637771553767
  endloop
endfacet
facet normal 0.0 -1.0 3.0531133177191805e-16
  outer loop
    vertex -162.00563568900685 61.23891672194733 13.000000000000012
    vertex -168.86113474096135 61.238916721947334 9.482637771553767
    vertex -168.5057405751586 61.238916721947334 9.216848924980832
  endloop
endfacet
facet normal 0.0 -1.0 3.0531133177191805e-16
  outer loop
    vertex -162.00563568900685 61.23891672194733 13.000000000000012
    vertex -168.5057405751586 61.238916721947334 9.216848924980832
    vertex -168.2312473873662 61.238916721947334 8.868133835108384
  endloop
endfacet
facet normal 0.0 -1.0 3.0531133177191805e-16
  outer loop
    vertex -162.00563568900685 61.23891672194733 13.000000000000012
    vertex -168.2312473873662 61.238916721947334 8.868133835108384
    vertex -168.05636143471074 61.238916721947334 8.460256859032297
  endloop
endfacet
facet normal 0.0 -1.0 3.0531133177191805e-16
  outer loop
    vertex -162.00563568900685 61.23891672194733 13.000000000000012
    vertex -168.05636143471074 61.238916721947334 8.460256859032297
    vertex -167.99300090585297 61.238916721947334 8.021014138623585
  endloop
endfacet
facet normal 0.0 -1.0 3.0531133177191805e-16
  outer loop
    vertex -162.00563568900685 61.23891672194733 13.000000000000012
    vertex -167.99300090585297 61.238916721947334 8.021014138623585
    vertex -162.00563568900685 61.23891672194733 3.000000000000015
  endloop
endfacet
facet normal 0.0 3.0531133177191805e-16 1.0
  outer loop
    vertex -172.00563568900685 61.23891672194733 13.000000000000012
    vertex -164.56770162562393 62.79962750118433 13.000000000000012
    vertex -174.8180404149689 62.79962750118433 13.000000000000012
  endloop
endfacet
facet normal 0.0 3.0531133177191805e-16 1.0
  outer loop
    vertex -164.56770162562393 62.79962750118433 13.000000000000012
    vertex -172.00563568900685 61.23891672194733 13.000000000000012
    vertex -162.00563568900685 61.23891672194733 13.000000000000012
  endloop
endfacet
facet normal 0.0 -3.0531133177191805e-16 -1.0
  outer loop
    vertex -162.00563568900685 61.23891672194733 3.000000000000015
    vertex -174.8180404149689 62.79962750118433 3.000000000000015
    vertex -164.56770162562393 62.79962750118433 3.000000000000015
  endloop
endfacet
facet normal 0.0 -3.0531133177191805e-16 -1.0
  outer loop
    vertex -174.8180404149689 62.79962750118433 3.000000000000015
    vertex -162.00563568900685 61.23891672194733 3.000000000000015
    vertex -172.00563568900685 61.23891672194733 3.000000000000015
  endloop
endfacet
facet normal 0.8721398656198537 -1.493755947804746e-16 -0.4892566349029758
  outer loop
    vertex -171.17550879185015 62.79962750118433 8.831736279335077
    vertex -171.34025832446645 61.238916721947334 8.41966066060486
    vertex -171.34025832446645 62.79962750118433 8.419660660604858
  endloop
endfacet
facet normal 0.9690513553941549 -7.53689148126747e-17 -0.24685921212049486
  outer loop
    vertex -171.34025832446645 61.238916721947334 8.41966066060486
    vertex -171.17550879185015 62.79962750118433 8.831736279335077
    vertex -171.17550879185015 61.238916721947334 8.831736279335079
  endloop
endfacet
facet normal 0.7157934852828333 -2.1320257481882737e-16 -0.6983120265516373
  outer loop
    vertex -170.9097199452772 62.79962750118433 9.187130445137802
    vertex -171.17550879185015 61.238916721947334 8.831736279335079
    vertex -171.17550879185015 62.79962750118433 8.831736279335077
  endloop
endfacet
facet normal 0.8721398656198537 -1.493755947804746e-16 -0.4892566349029758
  outer loop
    vertex -171.17550879185015 61.238916721947334 8.831736279335079
    vertex -170.9097199452772 62.79962750118433 9.187130445137802
    vertex -170.9097199452772 61.238916721947334 9.187130445137804
  endloop
endfacet
facet normal 0.5106669618284487 -2.625001517171914e-16 -0.859778607605994
  outer loop
    vertex -170.56100485540478 61.238916721947334 9.461623632930205
    vertex -170.9097199452772 62.79962750118433 9.187130445137802
    vertex -170.56100485540478 62.79962750118433 9.461623632930205
  endloop
endfacet
facet normal 0.7157934852828333 -2.1320257481882737e-16 -0.6983120265516373
  outer loop
    vertex -170.9097199452772 62.79962750118433 9.187130445137802
    vertex -170.56100485540478 61.238916721947334 9.461623632930205
    vertex -170.9097199452772 61.238916721947334 9.187130445137804
  endloop
endfacet
facet normal 0.2707393288425154 -2.9390877707803944e-16 -0.9626526974033285
  outer loop
    vertex -170.15312787932868 61.238916721947334 9.636509585585673
    vertex -170.56100485540478 62.79962750118433 9.461623632930205
    vertex -170.15312787932868 62.79962750118433 9.636509585585673
  endloop
endfacet
facet normal 0.5106669618284487 -2.625001517171914e-16 -0.859778607605994
  outer loop
    vertex -170.56100485540478 62.79962750118433 9.461623632930205
    vertex -170.15312787932868 61.238916721947334 9.636509585585673
    vertex -170.56100485540478 61.238916721947334 9.461623632930205
  endloop
endfacet
facet normal 0.012361258013862814 -3.052880049882385e-16 -0.9999235967314277
  outer loop
    vertex -169.71388515891996 61.238916721947334 9.699870114443444
    vertex -170.15312787932868 62.79962750118433 9.636509585585673
    vertex -169.71388515891996 62.79962750118433 9.699870114443444
  endloop
endfacet
facet normal 0.2707393288425154 -2.9390877707803944e-16 -0.9626526974033285
  outer loop
    vertex -170.15312787932868 62.79962750118433 9.636509585585673
    vertex -169.71388515891996 61.238916721947334 9.699870114443444
    vertex -170.15312787932868 61.238916721947334 9.636509585585673
  endloop
endfacet
facet normal -0.24685921212049594 -2.9586235987077163e-16 -0.9690513553941547
  outer loop
    vertex -169.27321035969155 61.238916721947334 9.64738730417008
    vertex -169.71388515891996 62.79962750118433 9.699870114443444
    vertex -169.27321035969155 62.79962750118433 9.64738730417008
  endloop
endfacet
facet normal 0.012361258013862814 -3.052880049882385e-16 -0.9999235967314277
  outer loop
    vertex -169.71388515891996 62.79962750118433 9.699870114443444
    vertex -169.27321035969155 61.238916721947334 9.64738730417008
    vertex -169.71388515891996 61.238916721947334 9.699870114443444
  endloop
endfacet
facet normal -0.4892566349029781 -2.662741838637787e-16 -0.8721398656198522
  outer loop
    vertex -168.86113474096135 61.238916721947334 9.482637771553767
    vertex -169.27321035969155 62.79962750118433 9.64738730417008
    vertex -168.86113474096135 62.79962750118433 9.482637771553767
  endloop
endfacet
facet normal -0.24685921212049594 -2.9586235987077163e-16 -0.9690513553941547
  outer loop
    vertex -169.27321035969155 62.79962750118433 9.64738730417008
    vertex -168.86113474096135 61.238916721947334 9.482637771553767
    vertex -169.27321035969155 61.238916721947334 9.64738730417008
  endloop
endfacet
facet normal -0.6983120265516374 -2.1853986226536459e-16 -0.715793485282833
  outer loop
    vertex -168.5057405751586 61.238916721947334 9.216848924980832
    vertex -168.86113474096135 62.79962750118433 9.482637771553767
    vertex -168.5057405751586 62.79962750118433 9.21684892498083
  endloop
endfacet
facet normal -0.4892566349029781 -2.662741838637787e-16 -0.8721398656198522
  outer loop
    vertex -168.86113474096135 62.79962750118433 9.482637771553767
    vertex -168.5057405751586 61.238916721947334 9.216848924980832
    vertex -168.86113474096135 61.238916721947334 9.482637771553767
  endloop
endfacet
facet normal -0.6983120265516374 -2.1853986226536459e-16 -0.715793485282833
  outer loop
    vertex -168.5057405751586 61.238916721947334 9.216848924980832
    vertex -168.2312473873662 62.79962750118433 8.868133835108383
    vertex -168.2312473873662 61.238916721947334 8.868133835108384
  endloop
endfacet
facet normal -0.8597786076059919 -1.5591241020776406e-16 -0.5106669618284525
  outer loop
    vertex -168.2312473873662 62.79962750118433 8.868133835108383
    vertex -168.5057405751586 61.238916721947334 9.216848924980832
    vertex -168.5057405751586 62.79962750118433 9.21684892498083
  endloop
endfacet
facet normal -0.8597786076059919 -1.5591241020776406e-16 -0.5106669618284525
  outer loop
    vertex -168.2312473873662 61.238916721947334 8.868133835108384
    vertex -168.05636143471074 62.79962750118433 8.460256859032295
    vertex -168.05636143471074 61.238916721947334 8.460256859032297
  endloop
endfacet
facet normal -0.9626526974033283 -8.265978505194388e-17 -0.27073932884251617
  outer loop
    vertex -168.05636143471074 62.79962750118433 8.460256859032295
    vertex -168.2312473873662 61.238916721947334 8.868133835108384
    vertex -168.2312473873662 62.79962750118433 8.868133835108383
  endloop
endfacet
facet normal -0.9626526974033283 -8.265978505194388e-17 -0.27073932884251617
  outer loop
    vertex -168.05636143471074 61.238916721947334 8.460256859032297
    vertex -167.99300090585297 62.79962750118433 8.021014138623583
    vertex -167.99300090585297 61.238916721947334 8.021014138623585
  endloop
endfacet
facet normal -0.9999235967314278 -3.774032146588049e-18 -0.012361258013860519
  outer loop
    vertex -167.99300090585297 62.79962750118433 8.021014138623583
    vertex -168.05636143471074 61.238916721947334 8.460256859032297
    vertex -168.05636143471074 62.79962750118433 8.460256859032295
  endloop
endfacet
facet normal -0.9999235967314278 -3.774032146588049e-18 -0.012361258013860519
  outer loop
    vertex -167.99300090585297 61.238916721947334 8.021014138623585
    vertex -168.04548371612634 62.79962750118433 7.580339339395174
    vertex -168.04548371612634 61.238916721947334 7.5803393393951755
  endloop
endfacet
facet normal -0.9690513553941553 7.536891481267406e-17 0.24685921212049275
  outer loop
    vertex -168.04548371612634 62.79962750118433 7.580339339395174
    vertex -167.99300090585297 61.238916721947334 8.021014138623585
    vertex -167.99300090585297 62.79962750118433 8.021014138623583
  endloop
endfacet
facet normal -0.9690513553941553 7.536891481267406e-17 0.24685921212049275
  outer loop
    vertex -168.04548371612634 61.238916721947334 7.5803393393951755
    vertex -168.21023324874264 62.79962750118433 7.168263720664955
    vertex -168.21023324874264 61.238916721947334 7.168263720664957
  endloop
endfacet
facet normal -0.8721398656198537 1.4937559478047456e-16 0.4892566349029756
  outer loop
    vertex -168.21023324874264 62.79962750118433 7.168263720664955
    vertex -168.04548371612634 61.238916721947334 7.5803393393951755
    vertex -168.04548371612634 62.79962750118433 7.580339339395174
  endloop
endfacet
facet normal -0.8721398656198537 1.4937559478047456e-16 0.4892566349029756
  outer loop
    vertex -168.21023324874264 61.238916721947334 7.168263720664957
    vertex -168.47602209531559 62.79962750118433 6.812869554862231
    vertex -168.47602209531559 61.238916721947334 6.812869554862233
  endloop
endfacet
facet normal -0.7157934852828317 2.1320257481882784e-16 0.6983120265516388
  outer loop
    vertex -168.47602209531559 62.79962750118433 6.812869554862231
    vertex -168.21023324874264 61.238916721947334 7.168263720664957
    vertex -168.21023324874264 62.79962750118433 7.168263720664955
  endloop
endfacet
facet normal -0.5106669618284483 2.6250015171719143e-16 0.8597786076059942
  outer loop
    vertex -168.82473718518804 61.238916721947334 6.538376367069828
    vertex -168.47602209531559 62.79962750118433 6.812869554862231
    vertex -168.82473718518804 62.79962750118433 6.5383763670698265
  endloop
endfacet
facet normal -0.7157934852828317 2.1320257481882784e-16 0.6983120265516388
  outer loop
    vertex -168.47602209531559 62.79962750118433 6.812869554862231
    vertex -168.82473718518804 61.238916721947334 6.538376367069828
    vertex -168.47602209531559 61.238916721947334 6.812869554862233
  endloop
endfacet
facet normal -0.270739328842516 2.9390877707803944e-16 0.9626526974033284
  outer loop
    vertex -169.2326141612641 61.238916721947334 6.363490414414361
    vertex -168.82473718518804 62.79962750118433 6.5383763670698265
    vertex -169.2326141612641 62.79962750118433 6.363490414414359
  endloop
endfacet
facet normal -0.5106669618284483 2.6250015171719143e-16 0.8597786076059942
  outer loop
    vertex -168.82473718518804 62.79962750118433 6.5383763670698265
    vertex -169.2326141612641 61.238916721947334 6.363490414414361
    vertex -168.82473718518804 61.238916721947334 6.538376367069828
  endloop
endfacet
facet normal -0.012361258013863018 3.052880049882385e-16 0.9999235967314277
  outer loop
    vertex -169.67185688167282 61.238916721947334 6.30012988555659
    vertex -169.2326141612641 62.79962750118433 6.363490414414359
    vertex -169.67185688167282 62.79962750118433 6.300129885556589
  endloop
endfacet
facet normal -0.270739328842516 2.9390877707803944e-16 0.9626526974033284
  outer loop
    vertex -169.2326141612641 62.79962750118433 6.363490414414359
    vertex -169.67185688167282 61.238916721947334 6.30012988555659
    vertex -169.2326141612641 61.238916721947334 6.363490414414361
  endloop
endfacet
facet normal 0.24685921212049639 2.958623598707716e-16 0.9690513553941545
  outer loop
    vertex -170.11253168090124 61.238916721947334 6.352612695829954
    vertex -169.67185688167282 62.79962750118433 6.300129885556589
    vertex -170.11253168090124 62.79962750118433 6.3526126958299525
  endloop
endfacet
facet normal -0.012361258013863018 3.052880049882385e-16 0.9999235967314277
  outer loop
    vertex -169.67185688167282 62.79962750118433 6.300129885556589
    vertex -170.11253168090124 61.238916721947334 6.352612695829954
    vertex -169.67185688167282 61.238916721947334 6.30012988555659
  endloop
endfacet
facet normal 0.4892566349029786 2.6627418386377866e-16 0.872139865619852
  outer loop
    vertex -170.52460729963147 61.238916721947334 6.517362228446268
    vertex -170.11253168090124 62.79962750118433 6.3526126958299525
    vertex -170.52460729963147 62.79962750118433 6.517362228446266
  endloop
endfacet
facet normal 0.24685921212049639 2.958623598707716e-16 0.9690513553941545
  outer loop
    vertex -170.11253168090124 62.79962750118433 6.3526126958299525
    vertex -170.52460729963147 61.238916721947334 6.517362228446268
    vertex -170.11253168090124 61.238916721947334 6.352612695829954
  endloop
endfacet
facet normal 0.6983120265516374 2.1853986226536459e-16 0.715793485282833
  outer loop
    vertex -170.88000146543416 61.238916721947334 6.7831510750192034
    vertex -170.52460729963147 62.79962750118433 6.517362228446266
    vertex -170.88000146543416 62.79962750118433 6.783151075019202
  endloop
endfacet
facet normal 0.4892566349029786 2.6627418386377866e-16 0.872139865619852
  outer loop
    vertex -170.52460729963147 62.79962750118433 6.517362228446266
    vertex -170.88000146543416 61.238916721947334 6.7831510750192034
    vertex -170.52460729963147 61.238916721947334 6.517362228446268
  endloop
endfacet
facet normal 0.8597786076059919 1.5591241020776406e-16 0.5106669618284525
  outer loop
    vertex -171.1544946532266 62.79962750118433 7.13186616489165
    vertex -170.88000146543416 61.238916721947334 6.7831510750192034
    vertex -170.88000146543416 62.79962750118433 6.783151075019202
  endloop
endfacet
facet normal 0.6983120265516374 2.1853986226536459e-16 0.715793485282833
  outer loop
    vertex -170.88000146543416 61.238916721947334 6.7831510750192034
    vertex -171.1544946532266 62.79962750118433 7.13186616489165
    vertex -171.1544946532266 61.238916721947334 7.131866164891651
  endloop
endfacet
facet normal 0.9626526974033287 8.265978505194362e-17 0.27073932884251534
  outer loop
    vertex -171.32938060588205 62.79962750118433 7.539743140967738
    vertex -171.1544946532266 61.238916721947334 7.131866164891651
    vertex -171.1544946532266 62.79962750118433 7.13186616489165
  endloop
endfacet
facet normal 0.8597786076059919 1.5591241020776406e-16 0.5106669618284525
  outer loop
    vertex -171.1544946532266 61.238916721947334 7.131866164891651
    vertex -171.32938060588205 62.79962750118433 7.539743140967738
    vertex -171.32938060588205 61.238916721947334 7.539743140967739
  endloop
endfacet
facet normal 0.9999235967314278 3.774032146587541e-18 0.012361258013858853
  outer loop
    vertex -171.39274113473982 62.79962750118433 7.978985861376455
    vertex -171.32938060588205 61.238916721947334 7.539743140967739
    vertex -171.32938060588205 62.79962750118433 7.539743140967738
  endloop
endfacet
facet normal 0.9626526974033287 8.265978505194362e-17 0.27073932884251534
  outer loop
    vertex -171.32938060588205 61.238916721947334 7.539743140967739
    vertex -171.39274113473982 62.79962750118433 7.978985861376455
    vertex -171.39274113473982 61.238916721947334 7.978985861376457
  endloop
endfacet
facet normal 0.9690513553941549 -7.53689148126747e-17 -0.24685921212049486
  outer loop
    vertex -171.34025832446645 62.79962750118433 8.419660660604858
    vertex -171.39274113473982 61.238916721947334 7.978985861376457
    vertex -171.39274113473982 62.79962750118433 7.978985861376455
  endloop
endfacet
facet normal 0.9999235967314278 3.774032146587541e-18 0.012361258013858853
  outer loop
    vertex -171.39274113473982 61.238916721947334 7.978985861376457
    vertex -171.34025832446645 62.79962750118433 8.419660660604858
    vertex -171.34025832446645 61.238916721947334 8.41966066060486
  endloop
endfacet
facet normal 0.0 3.0531133177191805e-16 1.0
  outer loop
    vertex -244.0857356890069 101.2389167219473 3.000000000000003
    vertex -162.00563568900688 61.23891672194733 3.000000000000015
    vertex -244.0857356890069 111.2389167219473 3.0
  endloop
endfacet
facet normal 0.0 3.0531133177191805e-16 1.0
  outer loop
    vertex -162.00563568900688 61.23891672194733 3.000000000000015
    vertex -244.0857356890069 101.2389167219473 3.000000000000003
    vertex -172.00563568900685 61.23891672194733 3.000000000000015
  endloop
endfacet
facet normal 0.5202369264123389 0.8540219788723489 -2.6074258773200567e-16
  outer loop
    vertex -162.00563568900688 61.23891672194733 3.000000000000015
    vertex -244.0857356890069 111.2389167219473 0.0
    vertex -244.0857356890069 111.2389167219473 3.0
  endloop
endfacet
facet normal 0.5202369264123389 0.8540219788723489 -2.6074258773200567e-16
  outer loop
    vertex -244.0857356890069 111.2389167219473 0.0
    vertex -162.00563568900688 61.23891672194733 3.000000000000015
    vertex -162.00563568900688 61.23891672194733 1.5265566588595896e-14
  endloop
endfacet
facet normal 0.0 -3.0531133177191805e-16 -1.0
  outer loop
    vertex -162.00563568900688 61.23891672194733 1.5265566588595896e-14
    vertex -244.0857356890069 101.23891672194729 3.05311331771918e-15
    vertex -244.0857356890069 111.2389167219473 0.0
  endloop
endfacet
facet normal 0.0 -3.0531133177191805e-16 -1.0
  outer loop
    vertex -244.0857356890069 101.23891672194729 3.05311331771918e-15
    vertex -162.00563568900688 61.23891672194733 1.5265566588595896e-14
    vertex -172.00563568900685 61.23891672194733 1.5265566588595896e-14
  endloop
endfacet
facet normal 0.0 -1.0 3.0531133177191805e-16
  outer loop
    vertex -162.00563568900688 61.23891672194733 1.5265566588595896e-14
    vertex -172.00563568900685 61.23891672194733 3.000000000000015
    vertex -172.00563568900685 61.23891672194733 1.5265566588595896e-14
  endloop
endfacet
facet normal 0.0 -1.0 3.0531133177191805e-16
  outer loop
    vertex -172.00563568900685 61.23891672194733 3.000000000000015
    vertex -162.00563568900688 61.23891672194733 1.5265566588595896e-14
    vertex -162.00563568900688 61.23891672194733 3.000000000000015
  endloop
endfacet
facet normal -0.4852303740693777 -0.8743863471489545 2.6696006013122996e-16
  outer loop
    vertex -172.00563568900685 61.23891672194733 1.5265566588595896e-14
    vertex -244.0857356890069 101.2389167219473 3.000000000000003
    vertex -244.0857356890069 101.23891672194729 3.05311331771918e-15
  endloop
endfacet
facet normal -0.4852303740693777 -0.8743863471489545 2.6696006013122996e-16
  outer loop
    vertex -244.0857356890069 101.2389167219473 3.000000000000003
    vertex -172.00563568900685 61.23891672194733 1.5265566588595896e-14
    vertex -172.00563568900685 61.23891672194733 3.000000000000015
  endloop
endfacet
facet normal -1.0 0.0 -0.0
  outer loop
    vertex -244.0857356890069 101.2389167219473 3.000000000000003
    vertex -244.0857356890069 111.2389167219473 0.0
    vertex -244.0857356890069 101.23891672194729 3.05311331771918e-15
  endloop
endfacet
facet normal -1.0 0.0 -0.0
  outer loop
    vertex -244.0857356890069 111.2389167219473 0.0
    vertex -244.0857356890069 101.2389167219473 3.000000000000003
    vertex -244.0857356890069 111.2389167219473 3.0
  endloop
endfacet
facet normal -0.4852303740693785 -0.8743863471489541 2.669600601312298e-16
  outer loop
    vertex -241.52366975238985 99.81712849656078 3.0000000000000036
    vertex -244.0857356890069 101.2389167219473 13.000000000000002
    vertex -244.0857356890069 101.23891672194729 3.000000000000003
  endloop
endfacet
facet normal -0.4852303740693785 -0.8743863471489541 2.669600601312298e-16
  outer loop
    vertex -244.0857356890069 101.2389167219473 13.000000000000002
    vertex -241.52366975238985 99.81712849656078 3.0000000000000036
    vertex -241.52366975238985 99.8171284965608 13.000000000000002
  endloop
endfacet
facet normal 1.0 0.0 0.0
  outer loop
    vertex -241.52366975238985 109.67820594271029 3.0000000000000004
    vertex -241.52366975238985 105.60794409476381 6.533738189094606
    vertex -241.52366975238985 99.81712849656078 3.0000000000000036
  endloop
endfacet
facet normal 1.0 0.0 0.0
  outer loop
    vertex -241.52366975238985 105.60794409476381 6.533738189094606
    vertex -241.52366975238985 109.67820594271029 3.0000000000000004
    vertex -241.52366975238985 105.95812735285 6.806355888089578
  endloop
endfacet
facet normal 1.0 0.0 0.0
  outer loop
    vertex -241.52366975238985 105.95812735285 6.806355888089578
    vertex -241.52366975238985 109.67820594271029 3.0000000000000004
    vertex -241.52366975238985 106.2258197532376 7.1603184607210855
  endloop
endfacet
facet normal 1.0 0.0 0.0
  outer loop
    vertex -241.52366975238985 106.2258197532376 7.1603184607210855
    vertex -241.52366975238985 109.67820594271029 3.0000000000000004
    vertex -241.52366975238985 109.67820594271029 12.999999999999998
  endloop
endfacet
facet normal 1.0 0.0 0.0
  outer loop
    vertex -241.52366975238985 99.81712849656078 3.0000000000000036
    vertex -241.52366975238985 105.60794409476381 6.533738189094606
    vertex -241.52366975238985 105.19913438931235 6.361043809400631
  endloop
endfacet
facet normal 1.0 0.0 0.0
  outer loop
    vertex -241.52366975238985 99.81712849656078 3.0000000000000036
    vertex -241.52366975238985 105.19913438931235 6.361043809400631
    vertex -241.52366975238985 104.75955794233222 6.300041585592828
  endloop
endfacet
facet normal 1.0 0.0 0.0
  outer loop
    vertex -241.52366975238985 106.2258197532376 7.1603184607210855
    vertex -241.52366975238985 109.67820594271029 12.999999999999998
    vertex -241.52366975238985 106.39277850122278 7.5715039426150925
  endloop
endfacet
facet normal 1.0 0.0 0.0
  outer loop
    vertex -241.52366975238985 106.39277850122278 7.5715039426150925
    vertex -241.52366975238985 109.67820594271029 12.999999999999998
    vertex -241.52366975238985 106.44762563404272 8.011890722696666
  endloop
endfacet
facet normal 1.0 0.0 0.0
  outer loop
    vertex -241.52366975238985 106.44762563404272 8.011890722696666
    vertex -241.52366975238985 109.67820594271029 12.999999999999998
    vertex -241.52366975238985 106.38662341023492 8.451467169676814
  endloop
endfacet
facet normal 1.0 0.0 0.0
  outer loop
    vertex -241.52366975238985 106.38662341023492 8.451467169676814
    vertex -241.52366975238985 109.67820594271029 12.999999999999998
    vertex -241.52366975238985 106.21392903054094 8.860276875128257
  endloop
endfacet
facet normal 1.0 0.0 0.0
  outer loop
    vertex -241.52366975238985 106.21392903054094 8.860276875128257
    vertex -241.52366975238985 109.67820594271029 12.999999999999998
    vertex -241.52366975238985 105.94131133154598 9.210460133214466
  endloop
endfacet
facet normal 1.0 0.0 0.0
  outer loop
    vertex -241.52366975238985 105.94131133154598 9.210460133214466
    vertex -241.52366975238985 109.67820594271029 12.999999999999998
    vertex -241.52366975238985 105.58734875891446 9.478152533602064
  endloop
endfacet
facet normal 1.0 0.0 0.0
  outer loop
    vertex -241.52366975238985 105.58734875891446 9.478152533602064
    vertex -241.52366975238985 109.67820594271029 12.999999999999998
    vertex -241.52366975238985 105.17616327702045 9.645111281587239
  endloop
endfacet
facet normal 1.0 0.0 0.0
  outer loop
    vertex -241.52366975238985 105.17616327702045 9.645111281587239
    vertex -241.52366975238985 109.67820594271029 12.999999999999998
    vertex -241.52366975238985 104.7357764969389 9.699958414407181
  endloop
endfacet
facet normal 1.0 0.0 0.0
  outer loop
    vertex -241.52366975238985 99.81712849656078 3.0000000000000036
    vertex -241.52366975238985 103.28140540873014 7.139723124871752
    vertex -241.52366975238985 99.8171284965608 13.000000000000002
  endloop
endfacet
facet normal 1.0 0.0 0.0
  outer loop
    vertex -241.52366975238985 103.28140540873014 7.139723124871752
    vertex -241.52366975238985 99.81712849656078 3.0000000000000036
    vertex -241.52366975238985 103.55402310772513 6.789539866785542
  endloop
endfacet
facet normal 1.0 0.0 0.0
  outer loop
    vertex -241.52366975238985 103.55402310772513 6.789539866785542
    vertex -241.52366975238985 99.81712849656078 3.0000000000000036
    vertex -241.52366975238985 103.90798568035662 6.521847466397944
  endloop
endfacet
facet normal 1.0 0.0 0.0
  outer loop
    vertex -241.52366975238985 103.90798568035662 6.521847466397944
    vertex -241.52366975238985 99.81712849656078 3.0000000000000036
    vertex -241.52366975238985 104.31917116225064 6.354888718412769
  endloop
endfacet
facet normal 1.0 0.0 0.0
  outer loop
    vertex -241.52366975238985 104.31917116225064 6.354888718412769
    vertex -241.52366975238985 99.81712849656078 3.0000000000000036
    vertex -241.52366975238985 104.75955794233222 6.300041585592828
  endloop
endfacet
facet normal 1.0 0.0 0.0
  outer loop
    vertex -241.52366975238985 99.8171284965608 13.000000000000002
    vertex -241.52366975238985 103.28140540873014 7.139723124871752
    vertex -241.52366975238985 103.10871102903616 7.548532830323195
  endloop
endfacet
facet normal 1.0 0.0 0.0
  outer loop
    vertex -241.52366975238985 99.8171284965608 13.000000000000002
    vertex -241.52366975238985 103.10871102903616 7.548532830323195
    vertex -241.52366975238985 103.04770880522837 7.988109277303343
  endloop
endfacet
facet normal 1.0 0.0 0.0
  outer loop
    vertex -241.52366975238985 99.8171284965608 13.000000000000002
    vertex -241.52366975238985 103.04770880522837 7.988109277303343
    vertex -241.52366975238985 103.10255593804831 8.428496057384917
  endloop
endfacet
facet normal 1.0 0.0 0.0
  outer loop
    vertex -241.52366975238985 99.8171284965608 13.000000000000002
    vertex -241.52366975238985 103.10255593804831 8.428496057384917
    vertex -241.52366975238985 103.26951468603347 8.83968153927893
  endloop
endfacet
facet normal 1.0 0.0 0.0
  outer loop
    vertex -241.52366975238985 99.8171284965608 13.000000000000002
    vertex -241.52366975238985 103.26951468603347 8.83968153927893
    vertex -241.52366975238985 103.53720708642108 9.19364411191043
  endloop
endfacet
facet normal 1.0 0.0 0.0
  outer loop
    vertex -241.52366975238985 99.8171284965608 13.000000000000002
    vertex -241.52366975238985 103.53720708642108 9.19364411191043
    vertex -241.52366975238985 103.8873903445073 9.466261810905403
  endloop
endfacet
facet normal 1.0 0.0 0.0
  outer loop
    vertex -241.52366975238985 99.8171284965608 13.000000000000002
    vertex -241.52366975238985 103.8873903445073 9.466261810905403
    vertex -241.52366975238985 104.29620004995873 9.638956190599378
  endloop
endfacet
facet normal 1.0 0.0 0.0
  outer loop
    vertex -241.52366975238985 99.8171284965608 13.000000000000002
    vertex -241.52366975238985 104.29620004995873 9.638956190599378
    vertex -241.52366975238985 104.7357764969389 9.699958414407181
  endloop
endfacet
facet normal 1.0 0.0 0.0
  outer loop
    vertex -241.52366975238985 99.8171284965608 13.000000000000002
    vertex -241.52366975238985 104.7357764969389 9.699958414407181
    vertex -241.52366975238985 109.67820594271029 12.999999999999998
  endloop
endfacet
facet normal 0.0 -3.0531133177191805e-16 -1.0
  outer loop
    vertex -241.52366975238985 109.67820594271029 3.0000000000000004
    vertex -244.0857356890069 101.23891672194729 3.000000000000003
    vertex -244.0857356890069 111.2389167219473 3.0
  endloop
endfacet
facet normal 0.0 -3.0531133177191805e-16 -1.0
  outer loop
    vertex -244.0857356890069 101.23891672194729 3.000000000000003
    vertex -241.52366975238985 109.67820594271029 3.0000000000000004
    vertex -241.52366975238985 99.81712849656078 3.0000000000000036
  endloop
endfacet
facet normal 0.5202369264123388 0.854021978872349 -2.607425877320057e-16
  outer loop
    vertex -241.52366975238985 109.67820594271029 12.999999999999998
    vertex -244.0857356890069 111.2389167219473 3.0
    vertex -244.0857356890069 111.2389167219473 12.999999999999998
  endloop
endfacet
facet normal 0.5202369264123388 0.854021978872349 -2.607425877320057e-16
  outer loop
    vertex -244.0857356890069 111.2389167219473 3.0
    vertex -241.52366975238985 109.67820594271029 12.999999999999998
    vertex -241.52366975238985 109.67820594271029 3.0000000000000004
  endloop
endfacet
facet normal -1.0 0.0 -0.0
  outer loop
    vertex -244.0857356890069 101.23891672194729 3.000000000000003
    vertex -244.0857356890069 103.90798568035662 6.521847466397944
    vertex -244.0857356890069 111.2389167219473 3.0
  endloop
endfacet
facet normal -1.0 0.0 -0.0
  outer loop
    vertex -244.0857356890069 103.90798568035662 6.521847466397944
    vertex -244.0857356890069 101.23891672194729 3.000000000000003
    vertex -244.0857356890069 103.55402310772513 6.789539866785542
  endloop
endfacet
facet normal -1.0 0.0 -0.0
  outer loop
    vertex -244.0857356890069 103.55402310772513 6.789539866785542
    vertex -244.0857356890069 101.23891672194729 3.000000000000003
    vertex -244.0857356890069 103.28140540873014 7.139723124871752
  endloop
endfacet
facet normal -1.0 0.0 -0.0
  outer loop
    vertex -244.0857356890069 103.28140540873014 7.139723124871752
    vertex -244.0857356890069 101.23891672194729 3.000000000000003
    vertex -244.0857356890069 103.10871102903616 7.548532830323195
  endloop
endfacet
facet normal -1.0 0.0 -0.0
  outer loop
    vertex -244.0857356890069 103.10871102903616 7.548532830323195
    vertex -244.0857356890069 101.23891672194729 3.000000000000003
    vertex -244.0857356890069 101.2389167219473 13.000000000000002
  endloop
endfacet
facet normal -1.0 0.0 -0.0
  outer loop
    vertex -244.0857356890069 111.2389167219473 3.0
    vertex -244.0857356890069 103.90798568035662 6.521847466397944
    vertex -244.0857356890069 104.31917116225064 6.354888718412769
  endloop
endfacet
facet normal -1.0 0.0 -0.0
  outer loop
    vertex -244.0857356890069 111.2389167219473 3.0
    vertex -244.0857356890069 104.31917116225064 6.354888718412769
    vertex -244.0857356890069 104.75955794233222 6.300041585592828
  endloop
endfacet
facet normal -1.0 0.0 -0.0
  outer loop
    vertex -244.0857356890069 103.10871102903616 7.548532830323195
    vertex -244.0857356890069 101.2389167219473 13.000000000000002
    vertex -244.0857356890069 103.04770880522837 7.988109277303343
  endloop
endfacet
facet normal -1.0 0.0 -0.0
  outer loop
    vertex -244.0857356890069 103.04770880522837 7.988109277303343
    vertex -244.0857356890069 101.2389167219473 13.000000000000002
    vertex -244.0857356890069 103.10255593804831 8.428496057384917
  endloop
endfacet
facet normal -1.0 0.0 -0.0
  outer loop
    vertex -244.0857356890069 103.10255593804831 8.428496057384917
    vertex -244.0857356890069 101.2389167219473 13.000000000000002
    vertex -244.0857356890069 103.26951468603347 8.83968153927893
  endloop
endfacet
facet normal -1.0 0.0 -0.0
  outer loop
    vertex -244.0857356890069 103.26951468603347 8.83968153927893
    vertex -244.0857356890069 101.2389167219473 13.000000000000002
    vertex -244.0857356890069 103.53720708642108 9.19364411191043
  endloop
endfacet
facet normal -1.0 0.0 -0.0
  outer loop
    vertex -244.0857356890069 103.53720708642108 9.19364411191043
    vertex -244.0857356890069 101.2389167219473 13.000000000000002
    vertex -244.0857356890069 103.8873903445073 9.466261810905403
  endloop
endfacet
facet normal -1.0 0.0 -0.0
  outer loop
    vertex -244.0857356890069 103.8873903445073 9.466261810905403
    vertex -244.0857356890069 101.2389167219473 13.000000000000002
    vertex -244.0857356890069 104.29620004995873 9.638956190599378
  endloop
endfacet
facet normal -1.0 0.0 -0.0
  outer loop
    vertex -244.0857356890069 104.29620004995873 9.638956190599378
    vertex -244.0857356890069 101.2389167219473 13.000000000000002
    vertex -244.0857356890069 104.7357764969389 9.699958414407181
  endloop
endfacet
facet normal -1.0 0.0 -0.0
  outer loop
    vertex -244.0857356890069 111.2389167219473 3.0
    vertex -244.0857356890069 105.95812735285 6.806355888089578
    vertex -244.0857356890069 111.2389167219473 12.999999999999998
  endloop
endfacet
facet normal -1.0 0.0 -0.0
  outer loop
    vertex -244.0857356890069 105.95812735285 6.806355888089578
    vertex -244.0857356890069 111.2389167219473 3.0
    vertex -244.0857356890069 105.60794409476381 6.533738189094606
  endloop
endfacet
facet normal -1.0 0.0 -0.0
  outer loop
    vertex -244.0857356890069 105.60794409476381 6.533738189094606
    vertex -244.0857356890069 111.2389167219473 3.0
    vertex -244.0857356890069 105.19913438931235 6.361043809400631
  endloop
endfacet
facet normal -1.0 0.0 -0.0
  outer loop
    vertex -244.0857356890069 105.19913438931235 6.361043809400631
    vertex -244.0857356890069 111.2389167219473 3.0
    vertex -244.0857356890069 104.75955794233222 6.300041585592828
  endloop
endfacet
facet normal -1.0 0.0 -0.0
  outer loop
    vertex -244.0857356890069 111.2389167219473 12.999999999999998
    vertex -244.0857356890069 105.95812735285 6.806355888089578
    vertex -244.0857356890069 106.2258197532376 7.1603184607210855
  endloop
endfacet
facet normal -1.0 0.0 -0.0
  outer loop
    vertex -244.0857356890069 111.2389167219473 12.999999999999998
    vertex -244.0857356890069 106.2258197532376 7.1603184607210855
    vertex -244.0857356890069 106.39277850122278 7.5715039426150925
  endloop
endfacet
facet normal -1.0 0.0 -0.0
  outer loop
    vertex -244.0857356890069 111.2389167219473 12.999999999999998
    vertex -244.0857356890069 106.39277850122278 7.5715039426150925
    vertex -244.0857356890069 106.44762563404272 8.011890722696666
  endloop
endfacet
facet normal -1.0 0.0 -0.0
  outer loop
    vertex -244.0857356890069 111.2389167219473 12.999999999999998
    vertex -244.0857356890069 106.44762563404272 8.011890722696666
    vertex -244.0857356890069 106.38662341023492 8.451467169676814
  endloop
endfacet
facet normal -1.0 0.0 -0.0
  outer loop
    vertex -244.0857356890069 111.2389167219473 12.999999999999998
    vertex -244.0857356890069 106.38662341023492 8.451467169676814
    vertex -244.0857356890069 106.21392903054094 8.860276875128257
  endloop
endfacet
facet normal -1.0 0.0 -0.0
  outer loop
    vertex -244.0857356890069 111.2389167219473 12.999999999999998
    vertex -244.0857356890069 106.21392903054094 8.860276875128257
    vertex -244.0857356890069 105.94131133154598 9.210460133214466
  endloop
endfacet
facet normal -1.0 0.0 -0.0
  outer loop
    vertex -244.0857356890069 111.2389167219473 12.999999999999998
    vertex -244.0857356890069 105.94131133154598 9.210460133214466
    vertex -244.0857356890069 105.58734875891446 9.478152533602064
  endloop
endfacet
facet normal -1.0 0.0 -0.0
  outer loop
    vertex -244.0857356890069 111.2389167219473 12.999999999999998
    vertex -244.0857356890069 105.58734875891446 9.478152533602064
    vertex -244.0857356890069 105.17616327702045 9.645111281587239
  endloop
endfacet
facet normal -1.0 0.0 -0.0
  outer loop
    vertex -244.0857356890069 111.2389167219473 12.999999999999998
    vertex -244.0857356890069 105.17616327702045 9.645111281587239
    vertex -244.0857356890069 104.7357764969389 9.699958414407181
  endloop
endfacet
facet normal -1.0 0.0 -0.0
  outer loop
    vertex -244.0857356890069 111.2389167219473 12.999999999999998
    vertex -244.0857356890069 104.7357764969389 9.699958414407181
    vertex -244.0857356890069 101.2389167219473 13.000000000000002
  endloop
endfacet
facet normal 0.0 3.0531133177191805e-16 1.0
  outer loop
    vertex -244.0857356890069 101.2389167219473 13.000000000000002
    vertex -241.52366975238985 109.67820594271029 12.999999999999998
    vertex -244.0857356890069 111.2389167219473 12.999999999999998
  endloop
endfacet
facet normal 0.0 3.0531133177191805e-16 1.0
  outer loop
    vertex -241.52366975238985 109.67820594271029 12.999999999999998
    vertex -244.0857356890069 101.2389167219473 13.000000000000002
    vertex -241.52366975238985 99.8171284965608 13.000000000000002
  endloop
endfacet
facet normal -6.935662619595487e-31 -0.2520565043440664 -0.9677125185807249
  outer loop
    vertex -241.52366975238985 105.17616327702045 9.645111281587239
    vertex -244.0857356890069 105.58734875891446 9.478152533602064
    vertex -241.52366975238985 105.58734875891446 9.478152533602064
  endloop
endfacet
facet normal -1.3591135236770308e-30 -0.49393031722289676 -0.8695014903541503
  outer loop
    vertex -244.0857356890069 105.58734875891446 9.478152533602064
    vertex -241.52366975238985 105.17616327702045 9.645111281587239
    vertex -244.0857356890069 105.17616327702045 9.645111281587239
  endloop
endfacet
facet normal 1.9246394338044213e-32 0.006994542762746734 -0.9999755378865727
  outer loop
    vertex -241.52366975238985 104.7357764969389 9.699958414407181
    vertex -244.0857356890069 105.17616327702045 9.645111281587239
    vertex -241.52366975238985 105.17616327702045 9.645111281587239
  endloop
endfacet
facet normal -6.935662619595487e-31 -0.2520565043440664 -0.9677125185807249
  outer loop
    vertex -244.0857356890069 105.17616327702045 9.645111281587239
    vertex -241.52366975238985 104.7357764969389 9.699958414407181
    vertex -244.0857356890069 104.7357764969389 9.699958414407181
  endloop
endfacet
facet normal 7.307474406676485e-31 0.2655689233392994 -0.9640918768231613
  outer loop
    vertex -241.52366975238985 104.29620004995873 9.638956190599378
    vertex -244.0857356890069 104.7357764969389 9.699958414407181
    vertex -241.52366975238985 104.7357764969389 9.699958414407181
  endloop
endfacet
facet normal 1.9246394338044213e-32 0.006994542762746734 -0.9999755378865727
  outer loop
    vertex -244.0857356890069 104.7357764969389 9.699958414407181
    vertex -241.52366975238985 104.29620004995873 9.638956190599378
    vertex -244.0857356890069 104.29620004995873 9.638956190599378
  endloop
endfacet
facet normal 1.3924492565329991e-30 0.5060452206636762 -0.8625069475914102
  outer loop
    vertex -241.52366975238985 103.8873903445073 9.466261810905403
    vertex -244.0857356890069 104.29620004995873 9.638956190599378
    vertex -241.52366975238985 104.29620004995873 9.638956190599378
  endloop
endfacet
facet normal 7.307474406676485e-31 0.2655689233392994 -0.9640918768231613
  outer loop
    vertex -244.0857356890069 104.29620004995873 9.638956190599378
    vertex -241.52366975238985 103.8873903445073 9.466261810905403
    vertex -244.0857356890069 103.8873903445073 9.466261810905403
  endloop
endfacet
facet normal 1.959257956696834e-30 0.7120353724790953 -0.7021435952414266
  outer loop
    vertex -241.52366975238985 103.53720708642108 9.19364411191043
    vertex -244.0857356890069 103.8873903445073 9.466261810905403
    vertex -241.52366975238985 103.8873903445073 9.466261810905403
  endloop
endfacet
facet normal 1.3924492565329991e-30 0.5060452206636762 -0.8625069475914102
  outer loop
    vertex -244.0857356890069 103.8873903445073 9.466261810905403
    vertex -241.52366975238985 103.53720708642108 9.19364411191043
    vertex -244.0857356890069 103.53720708642108 9.19364411191043
  endloop
endfacet
facet normal 1.959257956696834e-30 0.7120353724790953 -0.7021435952414266
  outer loop
    vertex -241.52366975238985 103.53720708642108 9.19364411191043
    vertex -244.0857356890069 103.26951468603347 8.83968153927893
    vertex -244.0857356890069 103.53720708642108 9.19364411191043
  endloop
endfacet
facet normal 2.3925464649386385e-30 0.8695014903541513 -0.49393031722289515
  outer loop
    vertex -244.0857356890069 103.26951468603347 8.83968153927893
    vertex -241.52366975238985 103.53720708642108 9.19364411191043
    vertex -241.52366975238985 103.26951468603347 8.83968153927893
  endloop
endfacet
facet normal 2.3925464649386385e-30 0.8695014903541513 -0.49393031722289515
  outer loop
    vertex -241.52366975238985 103.26951468603347 8.83968153927893
    vertex -244.0857356890069 103.10255593804831 8.428496057384917
    vertex -244.0857356890069 103.26951468603347 8.83968153927893
  endloop
endfacet
facet normal 2.6627868854648565e-30 0.9677125185807253 -0.25205650434406524
  outer loop
    vertex -244.0857356890069 103.10255593804831 8.428496057384917
    vertex -241.52366975238985 103.26951468603347 8.83968153927893
    vertex -241.52366975238985 103.10255593804831 8.428496057384917
  endloop
endfacet
facet normal 2.6627868854648565e-30 0.9677125185807253 -0.25205650434406524
  outer loop
    vertex -241.52366975238985 103.10255593804831 8.428496057384917
    vertex -244.0857356890069 103.04770880522837 7.988109277303343
    vertex -244.0857356890069 103.10255593804831 8.428496057384917
  endloop
endfacet
facet normal 2.7515627802100296e-30 0.9999755378865726 0.006994542762743165
  outer loop
    vertex -244.0857356890069 103.04770880522837 7.988109277303343
    vertex -241.52366975238985 103.10255593804831 8.428496057384917
    vertex -241.52366975238985 103.04770880522837 7.988109277303343
  endloop
endfacet
facet normal 2.7515627802100296e-30 0.9999755378865726 0.006994542762743165
  outer loop
    vertex -241.52366975238985 103.04770880522837 7.988109277303343
    vertex -244.0857356890069 103.10871102903616 7.548532830323195
    vertex -244.0857356890069 103.04770880522837 7.988109277303343
  endloop
endfacet
facet normal 2.6528242186563837e-30 0.9640918768231619 0.2655689233392971
  outer loop
    vertex -244.0857356890069 103.10871102903616 7.548532830323195
    vertex -241.52366975238985 103.04770880522837 7.988109277303343
    vertex -241.52366975238985 103.10871102903616 7.548532830323195
  endloop
endfacet
facet normal 2.6528242186563837e-30 0.9640918768231619 0.2655689233392971
  outer loop
    vertex -241.52366975238985 103.10871102903616 7.548532830323195
    vertex -244.0857356890069 103.28140540873014 7.139723124871752
    vertex -244.0857356890069 103.10871102903616 7.548532830323195
  endloop
endfacet
facet normal 2.373300070600608e-30 0.8625069475914096 0.5060452206636772
  outer loop
    vertex -244.0857356890069 103.28140540873014 7.139723124871752
    vertex -241.52366975238985 103.10871102903616 7.548532830323195
    vertex -241.52366975238985 103.28140540873014 7.139723124871752
  endloop
endfacet
facet normal 2.373300070600608e-30 0.8625069475914096 0.5060452206636772
  outer loop
    vertex -241.52366975238985 103.28140540873014 7.139723124871752
    vertex -244.0857356890069 103.55402310772513 6.789539866785542
    vertex -244.0857356890069 103.28140540873014 7.139723124871752
  endloop
endfacet
facet normal 1.93203944479721e-30 0.702143595241427 0.7120353724790949
  outer loop
    vertex -244.0857356890069 103.55402310772513 6.789539866785542
    vertex -241.52366975238985 103.28140540873014 7.139723124871752
    vertex -241.52366975238985 103.55402310772513 6.789539866785542
  endloop
endfacet
facet normal 1.93203944479721e-30 0.702143595241427 0.7120353724790949
  outer loop
    vertex -244.0857356890069 103.55402310772513 6.789539866785542
    vertex -241.52366975238985 103.90798568035662 6.521847466397944
    vertex -244.0857356890069 103.90798568035662 6.521847466397944
  endloop
endfacet
facet normal 1.3591135236770308e-30 0.49393031722289676 0.8695014903541503
  outer loop
    vertex -241.52366975238985 103.90798568035662 6.521847466397944
    vertex -244.0857356890069 103.55402310772513 6.789539866785542
    vertex -241.52366975238985 103.55402310772513 6.789539866785542
  endloop
endfacet
facet normal 1.3591135236770308e-30 0.49393031722289676 0.8695014903541503
  outer loop
    vertex -244.0857356890069 103.90798568035662 6.521847466397944
    vertex -241.52366975238985 104.31917116225064 6.354888718412769
    vertex -244.0857356890069 104.31917116225064 6.354888718412769
  endloop
endfacet
facet normal 6.935662619595487e-31 0.2520565043440664 0.9677125185807249
  outer loop
    vertex -241.52366975238985 104.31917116225064 6.354888718412769
    vertex -244.0857356890069 103.90798568035662 6.521847466397944
    vertex -241.52366975238985 103.90798568035662 6.521847466397944
  endloop
endfacet
facet normal 6.935662619595487e-31 0.2520565043440664 0.9677125185807249
  outer loop
    vertex -244.0857356890069 104.31917116225064 6.354888718412769
    vertex -241.52366975238985 104.75955794233222 6.300041585592828
    vertex -244.0857356890069 104.75955794233222 6.300041585592828
  endloop
endfacet
facet normal -1.9246394338043033e-32 -0.006994542762746315 0.9999755378865727
  outer loop
    vertex -241.52366975238985 104.75955794233222 6.300041585592828
    vertex -244.0857356890069 104.31917116225064 6.354888718412769
    vertex -241.52366975238985 104.31917116225064 6.354888718412769
  endloop
endfacet
facet normal -1.9246394338043033e-32 -0.006994542762746315 0.9999755378865727
  outer loop
    vertex -244.0857356890069 104.75955794233222 6.300041585592828
    vertex -241.52366975238985 105.19913438931235 6.361043809400631
    vertex -244.0857356890069 105.19913438931235 6.361043809400631
  endloop
endfacet
facet normal -7.307474406676508e-31 -0.26556892333930016 0.9640918768231611
  outer loop
    vertex -241.52366975238985 105.19913438931235 6.361043809400631
    vertex -244.0857356890069 104.75955794233222 6.300041585592828
    vertex -241.52366975238985 104.75955794233222 6.300041585592828
  endloop
endfacet
facet normal -7.307474406676508e-31 -0.26556892333930016 0.9640918768231611
  outer loop
    vertex -244.0857356890069 105.19913438931235 6.361043809400631
    vertex -241.52366975238985 105.60794409476381 6.533738189094606
    vertex -244.0857356890069 105.60794409476381 6.533738189094606
  endloop
endfacet
facet normal -1.3924492565330018e-30 -0.5060452206636772 0.8625069475914096
  outer loop
    vertex -241.52366975238985 105.60794409476381 6.533738189094606
    vertex -244.0857356890069 105.19913438931235 6.361043809400631
    vertex -241.52366975238985 105.19913438931235 6.361043809400631
  endloop
endfacet
facet normal -1.3924492565330018e-30 -0.5060452206636772 0.8625069475914096
  outer loop
    vertex -244.0857356890069 105.60794409476381 6.533738189094606
    vertex -241.52366975238985 105.95812735285 6.806355888089578
    vertex -244.0857356890069 105.95812735285 6.806355888089578
  endloop
endfacet
facet normal -1.9592579566968373e-30 -0.7120353724790961 0.7021435952414256
  outer loop
    vertex -241.52366975238985 105.95812735285 6.806355888089578
    vertex -244.0857356890069 105.60794409476381 6.533738189094606
    vertex -241.52366975238985 105.60794409476381 6.533738189094606
  endloop
endfacet
facet normal -1.9592579566968373e-30 -0.7120353724790961 0.7021435952414256
  outer loop
    vertex -241.52366975238985 105.95812735285 6.806355888089578
    vertex -244.0857356890069 106.2258197532376 7.1603184607210855
    vertex -244.0857356890069 105.95812735285 6.806355888089578
  endloop
endfacet
facet normal -2.3925464649386413e-30 -0.8695014903541521 0.4939303172228936
  outer loop
    vertex -244.0857356890069 106.2258197532376 7.1603184607210855
    vertex -241.52366975238985 105.95812735285 6.806355888089578
    vertex -241.52366975238985 106.2258197532376 7.1603184607210855
  endloop
endfacet
facet normal -2.3925464649386413e-30 -0.8695014903541521 0.4939303172228936
  outer loop
    vertex -241.52366975238985 106.2258197532376 7.1603184607210855
    vertex -244.0857356890069 106.39277850122278 7.5715039426150925
    vertex -244.0857356890069 106.2258197532376 7.1603184607210855
  endloop
endfacet
facet normal -2.6627868854648565e-30 -0.9677125185807253 0.25205650434406474
  outer loop
    vertex -244.0857356890069 106.39277850122278 7.5715039426150925
    vertex -241.52366975238985 106.2258197532376 7.1603184607210855
    vertex -241.52366975238985 106.39277850122278 7.5715039426150925
  endloop
endfacet
facet normal -2.6627868854648565e-30 -0.9677125185807253 0.25205650434406474
  outer loop
    vertex -241.52366975238985 106.39277850122278 7.5715039426150925
    vertex -244.0857356890069 106.44762563404272 8.011890722696666
    vertex -244.0857356890069 106.39277850122278 7.5715039426150925
  endloop
endfacet
facet normal -2.7515627802100296e-30 -0.9999755378865726 -0.006994542762743165
  outer loop
    vertex -244.0857356890069 106.44762563404272 8.011890722696666
    vertex -241.52366975238985 106.39277850122278 7.5715039426150925
    vertex -241.52366975238985 106.44762563404272 8.011890722696666
  endloop
endfacet
facet normal -2.7515627802100296e-30 -0.9999755378865726 -0.006994542762743165
  outer loop
    vertex -241.52366975238985 106.44762563404272 8.011890722696666
    vertex -244.0857356890069 106.38662341023492 8.451467169676814
    vertex -244.0857356890069 106.44762563404272 8.011890722696666
  endloop
endfacet
facet normal -2.652824218656382e-30 -0.9640918768231611 -0.26556892333929993
  outer loop
    vertex -244.0857356890069 106.38662341023492 8.451467169676814
    vertex -241.52366975238985 106.44762563404272 8.011890722696666
    vertex -241.52366975238985 106.38662341023492 8.451467169676814
  endloop
endfacet
facet normal -2.652824218656382e-30 -0.9640918768231611 -0.26556892333929993
  outer loop
    vertex -241.52366975238985 106.38662341023492 8.451467169676814
    vertex -244.0857356890069 106.21392903054094 8.860276875128257
    vertex -244.0857356890069 106.38662341023492 8.451467169676814
  endloop
endfacet
facet normal -2.373300070600608e-30 -0.8625069475914091 -0.5060452206636776
  outer loop
    vertex -244.0857356890069 106.21392903054094 8.860276875128257
    vertex -241.52366975238985 106.38662341023492 8.451467169676814
    vertex -241.52366975238985 106.21392903054094 8.860276875128257
  endloop
endfacet
facet normal -2.373300070600608e-30 -0.8625069475914091 -0.5060452206636776
  outer loop
    vertex -241.52366975238985 106.21392903054094 8.860276875128257
    vertex -244.0857356890069 105.94131133154598 9.210460133214466
    vertex -244.0857356890069 106.21392903054094 8.860276875128257
  endloop
endfacet
facet normal -1.932039444797215e-30 -0.7021435952414288 -0.7120353724790931
  outer loop
    vertex -244.0857356890069 105.94131133154598 9.210460133214466
    vertex -241.52366975238985 106.21392903054094 8.860276875128257
    vertex -241.52366975238985 105.94131133154598 9.210460133214466
  endloop
endfacet
facet normal -1.3591135236770308e-30 -0.49393031722289676 -0.8695014903541503
  outer loop
    vertex -241.52366975238985 105.58734875891446 9.478152533602064
    vertex -244.0857356890069 105.94131133154598 9.210460133214466
    vertex -241.52366975238985 105.94131133154598 9.210460133214466
  endloop
endfacet
facet normal -1.932039444797215e-30 -0.7021435952414288 -0.7120353724790931
  outer loop
    vertex -244.0857356890069 105.94131133154598 9.210460133214466
    vertex -241.52366975238985 105.58734875891446 9.478152533602064
    vertex -244.0857356890069 105.58734875891446 9.478152533602064
  endloop
endfacet
endsolid Modified_Thing_63165
